<?xml version="1.0" encoding="utf-8"?>
<!-- Generator: Adobe Illustrator 26.0.1, SVG Export Plug-In . SVG Version: 6.00 Build 0)  -->
<svg version="1.1" id="Layer_1" xmlns="http://www.w3.org/2000/svg" xmlns:xlink="http://www.w3.org/1999/xlink" x="0px" y="0px"
	 viewBox="0 0 1080 1080" style="enable-background:new 0 0 1080 1080;" xml:space="preserve">
<style type="text/css">
	.st0{fill:#FFFFFF;}
	.st1{fill:#C5F9EB;}
	.st2{fill:#86E5DD;}
	.st3{fill:#22393A;}
</style>
<g id="g2031" transform="translate(204.14671,13.985119)">
	<path id="path1995" class="st0" d="M583.1,162.5c-6.5,0-11.7,5.2-11.7,11.7c0,6.5,5.2,11.7,11.7,11.7h16.7v33
		c0,27.9,43.4,32.8,43.4,59.3c0,26.4-43.4,31.4-43.4,59.3v33h-16.7c-6.5,0-11.7,5.2-11.7,11.7c0,6.5,5.2,11.7,11.7,11.7h157.7
		c6.5,0,11.7-5.2,11.7-11.7c0-6.5-5.2-11.7-11.7-11.7H724v-33c0-27.9-43.4-32.8-43.4-59.3c0-26.4,43.4-31.4,43.4-59.3v-33h16.7
		c6.5,0,11.7-5.2,11.7-11.7c0-6.5-5.2-11.7-11.7-11.7H583.1z"/>
	<path id="path2004" class="st1" d="M583.1,159.9c-7.9,0-14.4,6.5-14.4,14.4c0,7.4,5.6,13.5,12.8,14.3v179.4
		c-7.2,0.8-12.8,6.9-12.8,14.3c0,7.9,6.5,14.4,14.4,14.4h157.7c7.9,0,14.4-6.5,14.4-14.4c0-7.9-6.5-14.4-14.4-14.4V188.6
		c7.9,0,14.4-6.5,14.4-14.4c0-7.9-6.5-14.4-14.4-14.4H583.1z M583.1,165.1h157.7c5.1,0,9.1,4,9.1,9.1c0,5.1-4,9.1-9.1,9.1H583.1
		c-5.1,0-9.1-4-9.1-9.1C573.9,169.1,578,165.1,583.1,165.1z M586.8,188.6h10.4v30.3c0,7.7,3.1,13.9,7.4,19
		c4.3,5.1,9.9,9.3,15.4,13.3c5.4,4,10.7,7.9,14.5,12.2c3.8,4.3,6.1,8.9,6.1,14.8c0,5.9-2.3,10.4-6.1,14.8
		c-3.8,4.3-9.1,8.2-14.5,12.2c-5.4,4-11,8.2-15.4,13.3c-4.3,5.1-7.4,11.4-7.4,19v30.3h-10.4V188.6z M602.4,188.6h119v30.3
		c0,6.3-2.4,11.1-6.2,15.6c-3.8,4.5-9.1,8.5-14.5,12.5c-5.4,4-11,8-15.3,13c-4.3,4.9-7.4,10.9-7.4,18.2c0,7.3,3.1,13.3,7.4,18.2
		c4.3,4.9,9.9,9,15.3,13c5.4,4,10.7,8,14.5,12.5c3.8,4.5,6.2,9.3,6.2,15.6v30.3h-119v-30.3c0-6.3,2.4-11.1,6.2-15.6
		c3.8-4.5,9.1-8.5,14.5-12.5c5.4-4,11-8,15.3-13c4.3-4.9,7.4-10.9,7.4-18.2c0-7.3-3.1-13.3-7.4-18.2c-4.3-4.9-9.9-9-15.3-13
		c-5.4-4-10.7-8-14.5-12.5c-3.8-4.5-6.2-9.3-6.2-15.6V188.6z M726.7,188.6h8.9v179.2h-8.9v-30.3c0-7.7-3.1-13.9-7.4-19
		c-4.3-5.1-9.9-9.3-15.4-13.3c-5.4-4-10.7-7.9-14.5-12.2c-3.8-4.3-6.1-8.9-6.1-14.8c0-5.9,2.3-10.4,6.1-14.8
		c3.8-4.3,9.1-8.2,14.5-12.2c5.4-4,11-8.2,15.4-13.3c4.3-5.1,7.4-11.4,7.4-19V188.6z M583.1,373.1h157.7c5.1,0,9.1,4,9.1,9.1
		c0,5.1-4,9.1-9.1,9.1H583.1c-5.1,0-9.1-4-9.1-9.1C573.9,377.1,578,373.1,583.1,373.1z"/>
	<path id="path1990" class="st1" d="M639.6,217.3c-5.2,0-10.6,0.9-16.4,3.4v8.8c0,17.4,30.1,20.5,30.1,48.8c0,13.6,17.3,11.7,17.3,0
		c0-29.1,30.1-31.4,30.1-48.8v-8.8C679.7,234.3,662.1,217.3,639.6,217.3z M629.7,318.6c-1.4,0-2.8,0.2-4.1,0.5
		c-8.6,7.8-16,15-16,22.1v20.5h104.5v-20.5c0-5.9-4.9-11.6-11.5-17.8c-17.6,5-34.7,21.3-51.6,4.9
		C643.4,320.7,636.1,318.4,629.7,318.6z"/>
</g>
<path id="path1514" class="st1" d="M124.1,928.2c-1.9,0-3.4,1.5-3.4,3.4c0,1.9,1.5,3.4,3.4,3.4h824.2c1.9,0,3.4-1.5,3.4-3.4
	c0-1.9-1.5-3.4-3.4-3.4H124.1z"/>
<g id="g1238">
	<path id="path1876" class="st0" d="M188.2,931.2H171l84.3-367.1h492.9l81.2,367.1H188.2z"/>
	<path id="path1841" class="st1" d="M305,542.2c-9.1,0-17.5,5.7-20.7,14.6c-0.6,1.6-1,3.2-1.2,4.8h-28c-1.2,0-2.3,0.8-2.6,2
		l-18.6,80.8c-0.1,0.2-0.1,0.4-0.1,0.6l-65.8,285.7c-0.4,1.6,0.9,3.2,2.6,3.2h428h12.3h111.9h106.4c1.7,0,3.1-1.8,2.8-3.2
		l-81.1-367.1c-0.3-1.2-1.3-2.1-2.6-2.1h-51.1h-25.6c-1.2-9.5-8.5-17.3-18.1-19c-10.6-1.9-21,4.2-24.6,14.2c-0.6,1.6-1,3.2-1.2,4.8
		H327.1c-1.2-9.5-8.5-17.3-18.1-19C307.6,542.3,306.3,542.2,305,542.2z M305,547.4c1,0,2,0.1,3,0.3c7.1,1.3,12.5,6.9,13.7,13.8
		h-33.3c0.2-1,0.4-2,0.8-3C291.7,551.8,298.1,547.5,305,547.4z M649.5,547.4c1,0,2,0.1,3,0.3c7.1,1.3,12.5,6.9,13.7,13.8h-33.3
		c0.2-1,0.4-2,0.8-3C636.2,551.8,642.5,547.5,649.5,547.4z M257.2,566.8h25.9c0.8,6.8,4.7,13.1,10.9,16.7c1.3,0.7,2.9,0.3,3.6-1
		c0.7-1.3,0.3-2.9-1-3.6c-4.6-2.7-7.5-7.2-8.3-12.2h35.2c0.3,0.1,0.6,0.2,1,0.2c0.3,0,0.7-0.1,1-0.2h302c0.8,6.8,4.7,13.1,10.9,16.7
		c1.3,0.7,2.9,0.3,3.6-1c0.7-1.3,0.3-2.9-1-3.6c-4.6-2.7-7.5-7.2-8.3-12.2h35.2c0.3,0.1,0.6,0.2,1,0.2c0.3,0,0.7-0.1,1-0.2h23.8
		L676,642.6H239.7L257.2,566.8z M699.3,566.8h20.9v75.7h-38.7L699.3,566.8z M725.4,566.8h20.8l16.7,75.7h-37.5V566.8z M680.2,647.7
		h39.9v280.8h-106L680.2,647.7z M725.4,647.7h38.7l62.1,280.8H725.4V647.7z M238.5,647.8h436.3l-66.1,280.7h-10.2H173.8L238.5,647.8
		z"/>
	<path id="path1724" class="st1" d="M341.7,674.5c-1.2,0-2.2,0.8-2.5,1.9l-16.2,60.5H253c-1.5,0-2.6,1.2-2.6,2.6l0,0
		c0,1.4,1.2,2.6,2.6,2.6c0,0,0,0,0,0h68.5l-25.7,96h-61.5c-1.4,0-2.6,1.2-2.6,2.6c0,1.4,1.2,2.6,2.6,2.6c0,0,0,0,0,0h60.1
		l-17.6,65.9c-0.4,1.4,0.5,2.8,1.9,3.2c0,0,0,0,0,0c1.4,0.4,2.8-0.5,3.2-1.9l18-67.2h107.1l-17.6,65.9c-0.4,1.4,0.5,2.8,1.9,3.2
		c0,0,0,0,0,0c1.4,0.4,2.8-0.5,3.2-1.9l18-67.2h94.2l-17.6,65.9c-0.4,1.4,0.5,2.8,1.9,3.2c0,0,0,0,0,0c1.4,0.4,2.8-0.5,3.2-1.9
		l18-67.2h68.1c1.4,0,2.6-1.2,2.6-2.6v0c0-1.4-1.2-2.6-2.6-2.6h-66.7l25.7-96h59.7c1.5,0,2.6-1.2,2.6-2.6v0c0-1.4-1.2-2.6-2.6-2.6
		h-58.3l15.8-59.1c0.4-1.4-0.5-2.8-1.9-3.2c-0.2-0.1-0.5-0.1-0.7-0.1c-1.2,0-2.2,0.8-2.5,1.9l-16.2,60.5h-94.2l15.8-59.1
		c0.4-1.4-0.5-2.8-1.9-3.2c-0.2-0.1-0.5-0.1-0.7-0.1c-1.2,0-2.2,0.8-2.5,1.9l-16.2,60.5H328.4l15.8-59.1c0.4-1.4-0.5-2.8-1.9-3.2
		C342.1,674.5,341.9,674.5,341.7,674.5z M327,742.1H434l-25.7,96H301.2L327,742.1z M439.5,742.1h94.2l-25.7,96h-94.2L439.5,742.1z"
		/>
	<path id="path1744" class="st1" d="M278.9,684.9c-0.6,0-1.1,0.2-1.6,0.6c-1.1,0.9-1.3,2.6-0.4,3.7l10.4,13.1L274,712.4
		c-1.1,0.9-1.4,2.5-0.5,3.7c0.9,1.2,2.5,1.4,3.7,0.5c0,0,0,0,0,0l13.3-10.2l10.4,13.1c0.9,1.1,2.6,1.3,3.7,0.4
		c1.1-0.9,1.3-2.6,0.4-3.7l-10.4-13.1L308,693c1.2-0.9,1.4-2.5,0.5-3.7c0,0,0,0,0,0c-0.5-0.7-1.3-1.1-2.2-1c-0.5,0-1.1,0.2-1.5,0.5
		L291.5,699L281,685.9c-0.5-0.6-1.2-1-2-1C279,684.9,279,684.9,278.9,684.9z"/>
	<path id="path1752" class="st1" d="M436.9,864.4c-0.1,0-0.1,0-0.2,0c-0.5,0-1.1,0.2-1.5,0.6c-1.1,0.9-1.3,2.6-0.4,3.7c0,0,0,0,0,0
		l10.4,13.1L432,891.9c-1.2,0.9-1.4,2.5-0.5,3.7c0,0,0,0,0,0c0.9,1.1,2.5,1.4,3.7,0.5l13.3-10.2l10.4,13.1c0.9,1.1,2.6,1.3,3.7,0.4
		c1.1-0.9,1.3-2.6,0.4-3.7l-10.4-13.1l13.2-10.1c1.2-0.9,1.4-2.5,0.5-3.7c-0.5-0.7-1.3-1.1-2.2-1c-0.5,0-1.1,0.2-1.5,0.5l-13.3,10.2
		L439,865.4C438.5,864.8,437.7,864.4,436.9,864.4L436.9,864.4z"/>
	<path id="path1760" class="st1" d="M544.5,864.4c-0.1,0-0.1,0-0.2,0c-0.5,0-1.1,0.2-1.5,0.6c-1.1,0.9-1.3,2.6-0.4,3.7l0,0
		l10.4,13.1l-13.2,10.1c-1.2,0.9-1.4,2.5-0.5,3.7c0,0,0,0,0,0c0.9,1.2,2.5,1.4,3.7,0.5c0,0,0,0,0,0l13.3-10.2l10.4,13.1
		c0.9,1.1,2.6,1.3,3.7,0.4c1.1-0.9,1.3-2.6,0.4-3.7l-10.4-13.1l13.2-10.1c1.2-0.9,1.4-2.5,0.5-3.7c-0.5-0.7-1.3-1.1-2.2-1
		c-0.5,0-1.1,0.2-1.5,0.5L557,878.6l-10.4-13.1C546.1,864.8,545.3,864.4,544.5,864.4L544.5,864.4z"/>
	<path id="path1768" class="st1" d="M482,686.8c-0.6,0-1.1,0.2-1.6,0.6c-1.1,0.9-1.3,2.6-0.4,3.7l10.4,13.1l-13.3,10.1
		c-1.1,0.9-1.4,2.5-0.5,3.7c0.9,1.2,2.5,1.4,3.7,0.5l13.3-10.2l10.4,13.1c0.9,1.1,2.6,1.3,3.7,0.4c1.1-0.9,1.3-2.6,0.4-3.7
		c0,0,0,0,0,0L497.8,705l13.3-10.1c1.2-0.9,1.4-2.5,0.5-3.7c0,0,0,0,0,0c-0.5-0.7-1.3-1.1-2.2-1c-0.5,0-1.1,0.2-1.5,0.5l-13.3,10.2
		l-10.4-13.1c-0.5-0.6-1.2-1-2-1C482,686.8,482,686.8,482,686.8z"/>
	<path id="path1776" class="st1" d="M362.1,766.8c-11.8,0-21.4,9.6-21.4,21.4c0,11.8,9.6,21.4,21.4,21.4c11.8,0,21.4-9.6,21.4-21.4
		C383.5,776.4,373.9,766.8,362.1,766.8z M362.1,772.1c8.9,0,16.1,7.2,16.1,16.1s-7.2,16.1-16.1,16.1c-8.9,0-16.1-7.2-16.1-16.1
		C346,779.3,353.2,772.1,362.1,772.1z"/>
	<path id="path1780" class="st1" d="M570.1,771.4c-11.8,0-21.4,9.6-21.4,21.4c0,11.8,9.6,21.4,21.4,21.4c11.8,0,21.4-9.6,21.4-21.4
		C591.5,781,581.9,771.4,570.1,771.4z M570.1,776.6c8.9,0,16.1,7.2,16.1,16.1s-7.2,16.1-16.1,16.1c-8.9,0-16.1-7.2-16.1-16.1
		S561.1,776.6,570.1,776.6z"/>
	<path id="path1784" class="st1" d="M370.1,690.7c-1.4,0-2.6,1.2-2.6,2.6c0,1.4,1.2,2.6,2.6,2.6h47c1.4,0,2.6-1.2,2.6-2.6
		c0-1.4-1.2-2.6-2.6-2.6H370.1z"/>
	<path id="path1788" class="st1" d="M364.2,712.1c-1.4,0-2.6,1.2-2.6,2.6c0,0,0,0,0,0c0,1.5,1.2,2.6,2.6,2.6c0,0,0,0,0,0h26.9
		c1.5,0,2.6-1.2,2.6-2.6c0,0,0,0,0,0c0-1.4-1.2-2.6-2.6-2.6c0,0,0,0,0,0H364.2z"/>
	<path id="path1792" class="st1" d="M247,777.8c-1.5,0-2.6,1.2-2.6,2.6c0,0,0,0,0,0c0,1.4,1.2,2.6,2.6,2.6h47c1.4,0,2.6-1.2,2.6-2.6
		c0,0,0,0,0,0c0-1.4-1.2-2.6-2.6-2.6c0,0,0,0,0,0H247z"/>
	<path id="path1796" class="st1" d="M241.1,799.2c-1.4,0-2.6,1.2-2.6,2.6c0,1.5,1.2,2.6,2.6,2.6c0,0,0,0,0,0H268
		c1.5,0,2.6-1.2,2.6-2.6c0,0,0,0,0,0c0-1.4-1.2-2.6-2.6-2.6H241.1z"/>
	<path id="path1800" class="st1" d="M314.4,866.1c-1.4,0-2.6,1.2-2.6,2.6c0,1.4,1.2,2.6,2.6,2.6h47c1.5,0,2.6-1.2,2.6-2.6
		c0,0,0,0,0,0c0-1.4-1.2-2.6-2.6-2.6c0,0,0,0,0,0H314.4z"/>
	<path id="path1804" class="st1" d="M308.5,887.5c-1.4,0-2.6,1.2-2.6,2.6c0,1.4,1.2,2.6,2.6,2.6c0,0,0,0,0,0h26.9
		c1.4,0,2.6-1.2,2.6-2.6c0,0,0,0,0,0c0-1.4-1.2-2.6-2.6-2.6H308.5z"/>
	<path id="path1808" class="st1" d="M453.4,777.4c-1.4,0-2.6,1.2-2.6,2.6c0,1.4,1.2,2.6,2.6,2.6h47c1.4,0,2.6-1.2,2.6-2.6
		s-1.2-2.6-2.6-2.6H453.4z"/>
	<path id="path1812" class="st1" d="M447.5,798.8c-1.4,0-2.6,1.2-2.6,2.6c0,1.4,1.2,2.6,2.6,2.6h26.9c1.4,0,2.6-1.2,2.6-2.6
		c0-1.4-1.2-2.6-2.6-2.6H447.5z"/>
	<path id="path1816" class="st1" d="M573.5,695.2c-1.4,0-2.6,1.2-2.6,2.6c0,1.4,1.2,2.6,2.6,2.6h47c1.5,0,2.6-1.2,2.6-2.6
		c0,0,0,0,0,0c0-1.5-1.2-2.6-2.6-2.6c0,0,0,0,0,0H573.5z"/>
	<path id="path1820" class="st1" d="M567.6,716.6c-1.5,0-2.6,1.2-2.6,2.6c0,0,0,0,0,0c0,1.4,1.2,2.6,2.6,2.6h26.9
		c1.4,0,2.6-1.2,2.6-2.6c0-1.5-1.2-2.6-2.6-2.6c0,0,0,0,0,0H567.6z"/>
	<path id="path1720" class="st1" d="M242,860c-11.8,0-21.4,9.6-21.4,21.4c0,11.8,9.6,21.4,21.4,21.4c11.8,0,21.4-9.6,21.4-21.4
		C263.4,869.6,253.8,860,242,860z M242,865.3c8.9,0,16.1,7.2,16.1,16.1s-7.2,16.1-16.1,16.1c-8.9,0-16.1-7.2-16.1-16.1
		S233.1,865.3,242,865.3z"/>
</g>
<g id="g1911">
	<path id="path1886" class="st2" d="M733.7,501.9c-0.1-0.4-143.1-23.3-153.3-22.8c-10.2,0.5-155.4-12.5-157.8-12.6
		c-2.4-0.1-26.9-1.2-26.9-1.2s-12.1,2-23.4,27.2c-11.4,25.2-32.4,69-32.4,69h62.4l19.2-32.2c0,0,9.9,0,10.3,0
		c0.4,0,12,24.4,18.1,34.7c6.1,10.2,31.9,43.4,38.4,52.8c6.4,9.5,18.1,26.8,25.9,42.5c7.9,15.7,18.6,33,22,40.8
		c3.4,7.9,7.3,13.4,18.5,5.4c11.2-8,24.1-21.6,25.3-34.1c1.2-12.5-8.2-11.1-10.6-15.3c-2.4-4.3-13.4-29.6-22-40.1
		c-8.6-10.4-20.3-30.1-24.2-39.2c-4-9.1-9-31.1-9-31.1l20.6,15.7H621c0,0,19.2,6.6,38.1,9.4c18.8,2.7,55.2,5.5,68.4-9.4
		c13.2-14.9,9.1-40.6,8.2-46.7C734.9,508.7,733.7,501.9,733.7,501.9L733.7,501.9z"/>
	<path id="path1895" class="st0" d="M537.5,192.6c0,0-2.6,7.4-2.7,17.8c-0.2,10.4,9.4,30.4,22.3,48.7c12.9,18.3,33.1,19.1,32.8,19.3
		c-0.4,0.2-24,25.2-34.1,38.6c-10.1,13.4-12.7,25.7-15.5,45.4c-2.8,19.7-19.5,77.5-19.9,77.6c-0.4,0.1-34.3-10.1-34.3-10.1
		l-26.2-68.2l-147.2,5.2l43.4,95l39.8,3.5l0,0c0,0,105.2,10.3,121.5,9.1c16.3-1.2,104.1,10.1,104.1,10.1L728,502.1
		c0,0,8.7,1.1,14.4-7.9c5.7-9-0.7-24.4-3.3-30.2c-2.7-5.8-2.7-9.2,0.1-20.2c2.8-11-0.5-55.8-1-68.1c-0.6-12.3-7.2-50.9-8.9-56.8
		c-1.7-6-7.9-27.2-15.1-35.4c-7.2-8.2-27.4-11.3-41.4-13.4c-14-2.2-40.2-11.2-40.2-11.2l-21.6-34.8c0,0,11.7-6.2,11.6-15.3
		c-0.1-9.2-11.2-8-15.4-0.5c-4.3,7.5-4,20.6-4,20.6l-15.7-19.7c0,0-8.4,7.5-25.8,4.4C544.3,210.4,537.5,192.6,537.5,192.6
		L537.5,192.6z M581.9,388.2c0,0,12.6,18.1,16.7,28.3c4.1,10.2,2.7,12.3,2.7,12.3l-44.1,18.8C558.4,445,581.9,388.2,581.9,388.2z
		 M596.1,455.7l-8.2,14c0,0-21.5-3-25-3.8l0,0l-0.1-0.1c-0.1,0-0.2,0-0.3-0.1l0.2,0l-3.1-1.6L596.1,455.7z"/>
	<path id="path1888" class="st1" d="M571.2,369.4c0,0,20.5,3.6,31.6-0.6c11.2-4.2,26.3-21.4,38.8-32.4c12.5-11,28.2-11.9,28.2-11.9
		l-11,39.3c0,0-13.7-0.5-29.6,16.6c-15.9,17-45.5,8.5-45.5,8.5L571.2,369.4z"/>
	<path id="path1890" class="st2" d="M580.3,148.2c-18.5,0.3-34,9.8-37.8,11.8c-3.9,2.1-8.3-0.2-17.3-1.5c-9-1.3-13.7,5.9-12.7,18.5
		c1,12.6,11.2,21,11.2,21s-7.3,1.6-7.6,12.8c-0.3,11.2,21.5,15,21.5,15s-0.9-4.2-3.1-14.4c-2.3-10.2,3-18.8,3-18.8
		s11.9,16.6,25.8,21.9c13.8,5.3,24.2-5.3,24.2-5.3l13.3,19.2c0,0,2.6-2.9,3.5-8.7c0.9-5.8,3.2-13.1,7.1-16.2
		c3.9-3.1,10.6,1.7,10.6,1.7s1.6-1.1,3.2-3.2c1.6-2.1,2.8-11.5-1.6-13.8c-4.5-2.4-10.6,0.6-10.6,0.6s0.4-14.9-1.2-24.4
		c-1.6-9.6-10.2-15.6-29.5-16C581.5,148.2,580.9,148.2,580.3,148.2L580.3,148.2z M618.7,220.2c-3.5,0.2-7.8,3.9-7.8,3.9l8.3,13.7
		c0,0,9.5,2.9,11.1-3.8c1.6-6.7-9.4-13.4-9.4-13.4C620.3,220.2,619.5,220.1,618.7,220.2z"/>
	<path id="path1903" class="st0" d="M551.8,707.6c0.3,0.8,8.6,11.3,15.9,33c7.3,21.7,8.9,50.4,9.2,59.6c0.3,9.2,4.3,19.4,14.6,9.4
		c10.3-9.9,17-67.3,17.9-73.3c0.9-6,3.7-25.4,1.4-32.7c-2.3-7.2-34.3-21.2-34.3-21.2S559.3,703.5,551.8,707.6z"/>
	<path id="path1518" class="st3" d="M585.3,145.1c-3.6,0-7.6,0.3-11.8,1c-11.3,1.7-20.8,6-27.6,9.1c-3.4,1.6-6.2,2.9-8.1,3.4
		c-0.9,0.3-1.5,0.3-1.7,0.3c-1.4-1.9-3.5-2.7-5.9-3.2c-2.6-0.5-5.6-0.6-8.7,0.1c-3,0.7-6.1,2.1-8.5,4.7c-2.4,2.6-3.9,6.2-4,10.8
		c-0.4,15.2,8.4,24.5,10.9,27c-1.2,1-2.4,1.9-4.2,4.7c-1.3,2-2.4,4.3-2.8,7c-0.3,2.7,0.4,5.7,2.5,8.3c6.8,8.4,18.7,10,21.5,10.3
		c0.4,1,0.9,2.1,1.3,3.2c12.7,28.8,25.6,40.1,39.8,46.6c2.6,1.2,5,1.9,7.2,2.2c-7.1,7.6-28.4,30.4-35,38.6
		c-4.4,5.5-7.1,14.8-9.3,25.3c-2.3,10.5-4,22-5.6,31.4c-3,17.4-15.6,57-16.9,61.2l-30.8-9.6l-24.8-66.9c-0.4-1-1.4-1.7-2.5-1.7
		c0,0-0.1,0-0.1,0l-147.3,5.6c-1.9,0.1-3.1,2-2.3,3.7l42.1,94.8c0.4,0.9,1.2,1.5,2.2,1.6l32.7,2.6c-4.5,3.5-9.6,9.4-15,19.7
		c-12.7,24.4-34.1,71.4-35.7,74.9h5.8c3.9-8.5,22.8-50,34.6-72.4c6.4-12.3,12.3-17.5,16.2-19.8c1.8-1,3.2-1.4,4.2-1.6l42.9,3.4
		c-6.2,5.4-15.7,16.7-14.7,34.9c0.4,6.8,1.6,13.6,3.7,20.6c-10.1-0.3-16.3-7.2-16.3-7.2c-0.5-0.6-1.3-0.9-2-0.9
		c-0.6,0-1.2,0.3-1.7,0.7c-1.1,1-1.2,2.6-0.2,3.7c0,0,3.3,3.7,9.1,6.4l-18.7,32.2h6.1l17.7-30.4c2.3,0.6,4.9,0.9,7.7,0.8
		c6.6,18.6,19.2,38.4,37.5,61.4c13.3,16.7,27.8,38.8,39.8,59c12,20.2,21.5,38.6,24.5,47.4c1.7,4.9,3.7,8.3,6.4,10.4
		c2.7,2.1,6.3,2.5,9.5,1.5c0.8-0.2,1.5-0.5,2.3-0.9c1.5,2.7,5.7,10.5,10.1,20.5c5.5,12.3,10.9,27.5,11.2,38.2
		c0.3,11.4,0,19.6,0.2,26.1c0.2,6.5,1,11.6,3.5,16.2c1.4,2.4,3.2,4.2,5.5,4.8c2.3,0.6,4.6,0,6.6-1.3c3.9-2.5,7.1-7.3,9.9-13.4
		c1.5-3.4,3.3-9.6,5.2-17.7c2-8.1,4-17.8,5.9-27.7c1.9-9.9,3.5-19.8,4.5-28.3c1.1-8.5,1.6-15.3,1-19.7c-0.6-4.6-3.4-8.6-6.9-11.9
		c-3.5-3.4-7.9-6.2-12.1-8.6c-7.2-4-13.8-6.5-15.8-7.2c1.5-3.7,2.1-7.2,2.2-10.3c0.1-3.5-0.5-6.6-1.6-9s-2.5-4.4-5.1-4.9
		c-1.1-0.2-2.6-1.4-4.4-4.4c-1.8-3-3.8-7.5-6.2-13.1c-2.7-6.3-9.4-15.2-16.9-26.1c-7.5-10.9-15.8-23.5-21.4-36.1
		c-3.8-8.4-6.8-17.4-9.1-25.6l12.3,10.2h8.2l-22.6-18.7c-0.1-0.1-0.2-0.1-0.3-0.2c-1.9-7.6-3.1-14-3.8-17.7
		c33.7,12.1,93.7,33.5,115.4,40.9c15.6,5.3,38.9,9.8,60.1,10c10.6,0.1,20.7-0.8,29.1-3.4c8.4-2.6,15.3-6.8,18.7-13.5
		c10.9-21.1,4.3-48.1,2.1-55.6c1.5-0.9,3.7-2.3,5.7-4.2c3.7-3.4,7.4-9.1,5.4-15.8c-3.3-11.2-8.6-25.1-8.6-25.1
		c-0.1-0.3-0.3-0.5-0.5-0.8c1.4-5.9,2.7-12.5,3.3-19.8c1.1-12.4,1-39.1-1.7-67.4c-2.7-28.2-7.8-57.8-17.1-76.4
		c-1.6-6.1-5-11.4-10.6-15.4c-5.7-4.1-13.5-6.8-24.1-8c-29.4-3.5-53.7-12.7-54.9-13.1l-9.5-16c0.6-0.2,1.2-0.4,1.9-0.6
		c2.8-1.2,6.1-4.2,6.3-9.1c0.3-5.1-2.9-8.8-5.7-11.1c-1.4-1.1-2.7-1.9-3.8-2.5c0.6-1,1.2-2,1.7-3.3c1.1-2.5,1.1-5.1,0.4-7.3
		c0.8-0.6,1.8-1.5,2.7-2.7c1.9-2.6,3.3-6.9,1.6-12.2c-0.9-2.8-2.7-4.8-4.7-5.9c-2-1.1-4.2-1.3-6.1-1.3c-1.7,0.1-1.9,0.4-3.2,0.7
		c0.2-3.5,0.4-9.6-1.1-20.4c-1.2-8.1-5.8-14.3-12.8-17.5c-3.5-1.6-7.6-2.5-12.2-2.9C587.7,145.1,586.5,145.1,585.3,145.1
		L585.3,145.1z M585.3,150.3c5.5,0,10.1,0.9,13.6,2.5c5.6,2.6,8.8,6.7,9.8,13.5c2.1,14.6,0.9,22.6,0.9,22.6c-0.3,2,1.8,3.6,3.6,2.8
		c0,0,2.5-1,5.1-1.1c1.3,0,2.5,0.2,3.4,0.6c0.9,0.5,1.7,1.2,2.2,2.9c1.2,3.7,0.3,5.9-0.8,7.4c-0.4,0.5-0.7,0.9-1.1,1.2
		c-0.4-0.4-0.9-0.8-1.3-1.2c-1.9-1.4-4.2-2.2-6.7-2.1c-2.4,0.1-5,1-7.1,3.1c-2.3,2.3-3.4,5.3-4,8.5c-0.7,3.2-0.9,6.6-1.1,9.6
		c-0.1,1.8-0.2,2.9-0.3,4.2c-1.8-2.1-3.8-4.6-6-7.8c-2.1-3-3.5-5.3-4.4-6.7c1.6-1.6,2.4-2.8,2.4-2.8c0.8-1.2,0.5-2.8-0.7-3.6
		c-1.2-0.8-2.8-0.5-3.6,0.7c0,0-2.3,3.4-7,6.1c-4.7,2.7-11.6,4.6-21.4,1.1c-19.3-6.9-23.6-30-23.6-30c-0.2-1.3-1.3-2.2-2.6-2.2
		c-0.2,0-0.3,0-0.5,0c-1.4,0.3-2.4,1.6-2.1,3.1c0,0,0.6,3.6,2.6,8.6c-0.3,0.4-0.7,1-1,1.8c-0.8,1.6-1.6,4.1-2,7.4
		c-0.6,5.2-0.1,12.5,3.1,22.3c-4.1-0.9-11.3-3-15.3-7.9c-1.3-1.6-1.5-2.9-1.3-4.4c0.2-1.5,0.9-3.2,1.9-4.7c2-3.1,4.9-5.4,4.9-5.4
		c1.3-1,1.3-2.9,0.1-4c0,0-11.2-10.3-10.8-25c0.1-3.5,1.1-5.7,2.6-7.3c1.5-1.6,3.5-2.6,5.7-3.1c2.2-0.5,4.6-0.5,6.4-0.1
		c1.8,0.4,3,1.3,3,1.3c0.8,1.2,2.4,1.9,3.6,2c1.3,0.1,2.4-0.2,3.6-0.6c2.5-0.8,5.3-2.1,8.7-3.7c6.8-3.1,15.8-7.1,26.3-8.7
		C578.3,150.6,581.9,150.3,585.3,150.3z M537.5,197.5c4,7.3,10.7,15.3,21.5,19.2c11.1,4,20,1.8,25.8-1.5c0.9-0.5,1.6-1,2.4-1.5
		c1,1.6,2.4,3.7,4.1,6.2c3,4.4,6.2,9.1,9.1,11.5c0.5,0.4,1.1,0.8,2,1c0.9,0.1,2.1-0.2,2.7-0.8c1.3-1.1,1.3-2.1,1.5-3.2
		c0.4-2.1,0.5-4.7,0.7-7.6c0.2-2.9,0.4-6.1,1-8.8c0.6-2.7,1.5-4.9,2.6-5.9c2.5-2.5,4.9-2,6.9-0.5c2,1.5,3.1,4.1,2,6.9
		c-2.8,6.6-9.8,8.8-9.8,8.8c-1.6,0.5-2.3,2.4-1.5,3.8l20.7,34.8c-0.2,3.7-2.2,28.3-15.3,47c-1.7,2.4-3.1,3.5-4.1,3.8
		c-1,0.4-1.6,0.3-2.7-0.3c-2.1-1.2-4.9-5.2-7.1-10c-3.5-7.7-6-17-6.8-20.5c1-0.3,1.8-0.6,2.7-1.1c1.4-0.7,2.5-1.5,3.6-2.4l2.5,4.2
		c0.7,1.2,2.4,1.6,3.6,0.9c1.2-0.7,1.6-2.4,0.9-3.6l-3.2-5.4c0-0.1-0.1-0.2-0.2-0.2c0.6-0.8,1.1-1.7,1.5-2.4c1.8-3.2,2.7-7,3.1-10.1
		c0.5-3.1,0.6-5.5,0.6-5.5c0.1-1.5-1.1-2.7-2.5-2.7c-1.5-0.1-2.7,1.1-2.7,2.5c0,0-0.1,2.1-0.5,4.9c-0.4,2.8-1.3,6.2-2.5,8.3
		c-1.4,2.4-3.5,5.3-6.6,6.9c-3,1.6-7.1,2.1-13.3-0.8c-13.2-6-24.8-15.9-37.1-43.9c-6.1-13.9-6.8-23-6.2-28.5
		C536.9,199.6,537.2,198.4,537.5,197.5z M619.1,221.9c0.6,0.3,2.3,1.1,4.1,2.5c2.2,1.7,3.9,4,3.8,6.7c-0.2,2.9-1.5,3.8-3.1,4.5
		c-1,0.4-2,0.6-2.7,0.7l-6.8-11.5C615.6,224.3,617.3,223.4,619.1,221.9z M564.7,240.5c-0.4,0-0.7,0.2-0.8,0.6c0,0-4.5,10.2-3.1,12.7
		c1.4,2.5,5.8,1.1,7.9-4.2C570.3,245.1,566.6,240.5,564.7,240.5z M634.1,263c7.8,2.7,29.1,9.6,53.7,12.5c10,1.2,17,3.7,21.7,7.1
		c4.7,3.4,7.3,7.6,8.6,12.8c0,0.1,0,0.1,0.1,0.2v0c0,0,0,0.1,0,0.1c0,0,0,0.1,0,0.1c0,0,0,0,0,0c0,0,0,0,0,0.1c0,0,0,0,0,0
		c0,0,0,0,0,0c8.8,17.3,14.1,46.8,16.7,74.8c2.7,28,2.8,54.7,1.7,66.4c-2.1,23.6-10.7,41.4-10.7,41.4c-0.6,1.3-0.1,2.9,1.2,3.5
		c1.3,0.6,2.9,0.1,3.5-1.2c0,0,2.8-5.7,5.6-15c1.8,5,4.4,12.4,6.4,18.9c1.3,4.3-1,7.7-4,10.4c-2.7,2.6-5.4,3.8-5.9,4l-140.8-21.1
		l-1.9-8.4c0.3-0.9,1-2.6,2.1-4.6c1.5-2.9,3.9-6,6.4-7.5c0,0,0,0,0.1,0c22.9-4.2,46.6-8.7,53.6-10.7c6.8-1.9,12.7-3.8,18.2-8.2
		c5.5-4.3,10.4-10.9,15.5-21.8c5.9-12.7,17.4-39.3,26.2-63.2c0.5-1.4-0.2-2.9-1.6-3.4c-0.3-0.1-0.6-0.2-0.9-0.2
		c-1.1,0-2.1,0.7-2.5,1.7c-2.6,7.1-5.5,14.3-8.3,21.5c-4.9-6.9-13.6-10.6-21.2-12.8c-5.9-1.7-11.2-2.5-14.1-2.8
		c2.1-8.2,3.8-15,4.6-17.8c2.7-9.9,8.7-23.2,8.7-23.2c0.6-1.3,0-2.9-1.3-3.5c-0.3-0.2-0.7-0.2-1.1-0.2c-1,0-1.9,0.6-2.4,1.5
		c0,0-6.1,13.3-9,24c-2.8,10.4-17.8,70.1-18.1,71.1c-6.1,1.9-14.6,4.7-25.4,8.8c-4.9,1.8-10.5,4.1-16.3,6.6
		c-1.5-5.7-5.9-19.7-14.1-31.2c-10.2-14.1-21.1-30.8-21.1-30.8c-0.5-0.7-1.3-1.2-2.1-1.2c-0.5,0-1.1,0.1-1.5,0.4
		c-1.2,0.8-1.5,2.4-0.7,3.6c0,0,6.9,10.5,14.9,21.9c-0.3,0.3-0.5,0.7-0.7,1.2c0,0.1-0.1,0.3-0.2,0.5c-0.2,0.5-0.4,1.1-0.8,2
		c-0.7,1.7-1.6,4.1-2.8,6.9c-1.5,3.7-3.6,8.8-5.6,13.5c-4.4-2.9-16.9-9.5-35.1-8.1c2.9-10.2,5.4-20.3,6.6-27.2
		c1.6-9.5,3.3-21,5.5-31.2c2.2-10.2,5.2-19.2,8.3-23.1c6-7.5,27.3-30.3,34.6-38.2c1.2,4.7,3.4,12,6.4,18.5c2.4,5.2,5.1,10,9.3,12.4
		c2.1,1.2,4.7,1.6,7.1,0.7c2.4-0.9,4.6-2.9,6.6-5.8C630.2,292.7,633.3,271.3,634.1,263L634.1,263z M662.5,362.8
		c2.4,0.3,7.9,1,13.9,2.7c8,2.3,16.5,6.6,19.7,13c0.1,0.3,0.3,0.6,0.6,0.8c-5.9,14.5-11.7,27.6-15.3,35.4
		c-4.9,10.4-9.3,16.2-13.9,19.9c-4.7,3.7-9.8,5.4-16.4,7.2c-6.2,1.7-31.7,6.6-55.1,10.9c-10.3,1.9-20,3.6-27.9,5.1
		c0.1-2.3-0.5-4.5-1.1-6.4c-0.4-1.3-0.8-2.4-1.2-3.3c13.4-6.4,39.3-18.5,56-24.8c23.5-8.8,36-11.8,36-11.8c1.4-0.3,2.3-1.8,1.9-3.2
		c-0.3-1.2-1.3-2-2.5-2c-0.2,0-0.5,0-0.7,0.1c0,0-1.8,0.4-5.3,1.4C652.2,403.8,657.6,382.3,662.5,362.8z M458.3,364l39.5,106.5
		l-141.2-11.2l-39.8-89.9L458.3,364z M582.3,392.9c1,1.4,1.9,2.7,2.9,4.1c8.1,11.2,12.3,25.5,13.5,30.2
		c-15.6,6.8-30.4,13.9-37.8,17.4c1.9-4.5,4.9-11.7,9.8-23.5c3.1-7.5,6.2-15,8.6-20.7c1.2-2.8,2.1-5.2,2.8-7
		C582.2,393.2,582.2,393.1,582.3,392.9z M394.3,393.2c-0.5,0-1,0.1-1.5,0.2c-2.2,0.6-4.3,2.2-6.3,4.4c-4,4.6-7.2,12.6-3.2,21.4
		c3.9,8.6,11,11.7,17.2,10.7c6.2-1,11.5-5.4,13.5-10.9c2-5.4-0.5-10.3-4.1-12.4c-2.8-1.6-6.1-1.5-9,0c-0.5-0.4-1.1-0.7-2-1.9
		c-1.3-1.7-2.2-3.7-1.4-6.1c0.4-1.3,0.6-3-0.7-4.3c-0.6-0.7-1.4-1-2.1-1.1C394.7,393.2,394.5,393.2,394.3,393.2z M392.5,399.8
		c-0.1,3.2,0.8,6.2,2.3,8.1c1.9,2.5,4.1,3.9,4.1,3.9c1.1,0.7,2.6,0.5,3.4-0.4c0.9-1,3.2-1.2,5-0.2c1.8,1.1,3.1,2.7,1.8,6.1
		c-1.2,3.3-5.3,6.8-9.4,7.5c-4.2,0.7-8.4-0.6-11.6-7.7c-3.1-6.8-0.6-12.4,2.4-15.8C391.3,400.4,391.8,400.3,392.5,399.8z
		 M539.6,408.9c15.4,0.2,24.9,6.4,27.1,8c-0.3,0.8-0.6,1.4-0.9,2.2c-5.8,13.8-10.7,25.6-11.5,27.6c-1.9-0.6-6.4-2.2-13-4.1
		c-6.2-1.8-12.8-3.6-18.1-4.4c1.2-3.9,4.8-15.2,8.8-29C534.8,409,537.3,408.9,539.6,408.9z M489.7,433.5l21.1,6.6
		c-3.1,1.5-6.1,3.6-8.8,5.6c-2.4,1.8-4.4,3.5-5.9,4.9L489.7,433.5z M723.3,438.5c-0.8,0-1.6,0.4-2,1.1c0,0-19.1,26.2-45.5,34.4
		c-1.4,0.4-2.2,1.9-1.7,3.3c0.4,1.4,1.9,2.2,3.3,1.7c28.7-8.9,48.2-36.3,48.2-36.3c0.8-1.2,0.6-2.8-0.6-3.7c-0.4-0.3-1-0.5-1.5-0.5
		C723.4,438.5,723.3,438.5,723.3,438.5z M519.4,443.2c4,0.1,12.9,2.2,20.5,4.4c8.1,2.4,15,4.8,15,4.8l0,0c0.2,0.1,0.4,0.1,0.6,0.1
		c0,0,0,0,0,0c0,0,0,0,0.1,0c0.1,0,0.2,0,0.3,0c0,0,0,0,0.1,0c0,0,0,0,0,0c0,0,0,0,0,0c0,0,0,0,0.1,0c0,0,0,0,0,0c0,0,0.1,0,0.1,0
		l0,0c0,0,0.1,0,0.1,0l0,0c0.2,0,0.5-0.1,0.7-0.2c0,0,2.4-1.2,3.9-1.9c0.3,0.7,0.6,1.5,0.9,2.5c0.6,2.1,0.9,4.6,0.7,5.8
		c-6.5,1.2-12,2.1-12,2.1c-0.1,0-0.2,0-0.2,0.1l-49.2-7.8c1.2-1,2.5-2.1,4-3.2c4.5-3.4,10.3-6.6,13.6-6.8
		C518.9,443.2,519.2,443.2,519.4,443.2L519.4,443.2z M498.8,458.1l86.6,13.7l1.3,5.7l-83.1-6.6L498.8,458.1z M589.8,459.2
		c-0.8,1.1-1.5,2.3-2.1,3.4c-0.8,1.5-1.4,2.9-1.9,4l-19.7-3.1C572.7,462.3,581,460.8,589.8,459.2z M448.2,471.8L589.7,483
		l141.8,21.2c1.8,6.6,8.2,33.1-1.6,52.2c-2.6,5-8,8.6-15.6,10.9c-7.6,2.3-17.2,3.3-27.5,3.2c-20.5-0.2-43.5-4.6-58.5-9.7
		c-30.4-10.4-139.5-49.5-139.5-49.5c-1.4-0.5-2.9,0.2-3.4,1.6c-0.5,1.4,0.2,2.9,1.6,3.4c0,0,6.8,2.5,16.6,5.9
		c-2.6,2-7.2,4.3-13.5,2.2c-1.4-0.5-2.9,0.3-3.3,1.7c-0.5,1.4,0.3,2.9,1.7,3.3c8.8,2.9,14.4-0.4,17.8-3.2c0.9,5.8,5,29.7,15.4,52.9
		c5.9,13.1,14.3,26,21.9,36.9c7.6,11,14.3,20.2,16.4,25.2c2.4,5.6,4.4,10.3,6.6,13.8c2.1,3.5,4.5,6.2,8,6.8
		c-0.3-0.1,0.6,0.3,1.3,1.9c0.7,1.5,1.2,3.9,1.1,6.7c-0.1,5.6-2.6,13.3-10.5,21c-8.3,8.1-15,13.9-19.2,15.2
		c-2.1,0.7-3.3,0.5-4.7-0.6c-1.4-1.1-3.1-3.6-4.7-8c-3.4-9.7-12.9-28-25-48.3c-12.1-20.3-26.7-42.6-40.2-59.6
		c-26.7-33.6-40.5-59.7-41.8-84.2c-1.3-24,17.2-33.8,17.2-33.8C448,471.9,448.1,471.8,448.2,471.8z M577.6,685.5
		c0.7,0.2,7.9,2.8,15.5,7.1c2.9,1.6,5.7,3.4,8.2,5.4c0,0,0,0,0,0.1c0,0-2.7,17.4-5.9,35.5c-1.6,9.1-3.2,18.3-4.7,25.6
		c-0.7,3.7-1.4,6.9-2,9.3c-0.6,2.4-1.2,4.3-1.3,4.4c-0.1,0.3-0.2,0.6-0.3,0.9c-3.3,1.4-6,3-8.1,4.6c-0.6,0.4-1.1,0.9-1.5,1.3
		c0-3.2,0-6.6-0.1-10.4c-0.2-6.6-1.9-14-4.3-21.5c0.1-0.1,0.2-0.1,0.4-0.2c0.7-0.4,2.1-0.9,4.2-1.2c1.4-0.2,2.5-1.5,2.3-2.9
		c-0.2-1.4-1.3-2.4-2.7-2.3c-0.1,0-0.2,0-0.2,0c-2.6,0.3-4.5,0.9-5.8,1.6c-0.6-1.7-1.3-3.4-2-5.1c0,0,0-0.1,0-0.1
		c0,0,3.4-7,13.2-8.1c1.4-0.1,2.5-1.4,2.3-2.9c-0.1-1.4-1.3-2.4-2.7-2.4c-0.1,0-0.2,0-0.2,0c-7.6,0.8-12.4,4.8-15,7.7
		c-0.4-1-0.8-2-1.3-2.9c-4.6-10.3-9-18.4-10.4-21c4.4-3.1,9.1-7.6,14.5-12.9C573.3,691.9,575.8,688.6,577.6,685.5z M606,702.3
		c2,2.3,3.2,4.7,3.5,6.9c0.4,3.1,0,10-1,18.4c-1,8.3-2.6,18.2-4.5,28c-1,5.1-2,10.2-3,15c-2.7,0.3-5.2,0.7-7.5,1.3
		c0.2-0.6,0.3-1.3,0.5-2.1c0.6-2.5,1.3-5.8,2-9.5c1.5-7.4,3.1-16.7,4.7-25.8C603.3,719.1,605.3,706.5,606,702.3z M599.8,775.9
		c-0.5,2.4-1.1,4.8-1.6,7c-1.9,7.9-3.8,14.3-4.9,16.7c-2.5,5.6-5.7,9.7-7.9,11.2c-1.1,0.7-1.8,0.8-2.4,0.6c-0.5-0.2-1.4-0.7-2.3-2.3
		c-2-3.6-2.7-7.6-2.9-13.8c-0.1-2.2-0.1-4.8-0.1-7.7c0.1-0.2,1.2-2.4,4.8-5.1C585.9,779.9,591.3,777,599.8,775.9z"/>
</g>
<g id="g1970" transform="translate(-421.9518)">
	<path id="path1965" class="st0" d="M1233.9,931.2h-15.3c0,0-9.1-22-15-41.7c-5.9-19.7-12.9-45.8-13.4-57.2
		c-0.6-11.4,10.6-15.8,10.6-15.8s-14.6-9.2-12.5-25c2.1-15.8,2.1-27.9-1.1-37.8c-3.2-9.9-13.1-15.3-15-31.6
		c-1.9-16.3,5.6-42.6,16.9-35.6c11.4,7,18.2,22,22.3,26.7c4.2,4.7,8,5.3,13.3,7.6s14.6,23.5,14.6,23.5s10.8-14.8,4-44.9
		c-6.8-30.1-9.5-40.2-1.9-52.3c7.6-12.1,17.6-19.9,19.9-41.7c2.3-21.8,5.9-45.8,21-62.3c15.2-16.5,38.3-27.1,51.1-10.4
		c12.9,16.7,2.8,75,2.8,75s-12.7,52.1-11.7,66.3c0.9,14.2,4.2,32.6,4.2,32.6s15.7-14,25.2-16.1c9.5-2.1,19.9,8,12.5,24.8
		c-7.4,16.9-6.4,15.9-6.2,25.6s0.9,22.2-8.3,32.4c-9.3,10.2-18.8,14.8-24.2,21.8c-5.5,7-9.7,21.2-9.7,21.2s9.6,6.4,10.2,17.3
		c0.5,10.8-7.6,33.6-7.9,35c-0.3,1.3-19.9,62.7-19.9,62.7L1233.9,931.2z"/>
	<path id="path1963" class="st1" d="M1192.6,856.6c0,0,19.6,14.7,41.2,2.9s48.2-13.1,62.1-2.7c13.9,10.4,26.2,7.2,26.2,7.2
		l-10.4,31.3c0,0-15,3.8-32.1-9.4c-17.1-13.1-32.4,5.4-49.6,9.4c-17.1,4-25.7-1.9-25.7-1.9L1192.6,856.6z"/>
	<path id="path1923" class="st1" d="M1317,521.6c-0.6,0-1.3,0-2,0c-10.5,0.6-22.1,6.6-32,17.3c-19.5,21.3-23.2,42.7-24.5,68.1
		c-0.6,11.8-6.5,20.4-12.6,28.7c-6.1,8.3-12.5,16.4-12.4,26.9c0.1,9.9,3,20.8,5.5,31.6c2.5,10.8,4.5,21.6,3.4,30.7
		c-0.6,4.7-1.9,9.2-3.5,13.7c-0.7-2.1-1.7-4.5-2.9-6.9c-1.6-3.4-3.7-6.9-6.4-9.8s-6.1-5.1-10.2-5.5c-2.4-0.2-4.1-1.4-5.9-3.7
		c-1.8-2.3-3.5-5.6-5.4-9.2c-3.7-7.3-8.3-16-17.9-19.9c-2.6-1-5.2-1.1-7.6-0.3c-2.4,0.7-4.5,2.2-6.2,4.2c-3.4,3.9-5.5,9.5-6.8,15.8
		c-2.5,12.4-1.7,27.2,5.4,35.3c11.2,12.8,14.6,32.9,10.6,48.6c-3.5,14,6.2,24.6,11,28.8c-0.1,0.1-0.2,0.1-0.3,0.2
		c-6.8,4.6-11.1,11.9-9.5,21c6,33.3,27.6,94.9,27.6,94.9c0.4,1.1,1.4,1.8,2.5,1.8h83.6c0.4,0,0.8-0.1,1.1-0.2c0.1,0,0.1-0.1,0.2-0.1
		c0,0,0.1,0,0.1-0.1c0,0,0.1,0,0.1-0.1c0,0,0.1,0,0.1-0.1c0,0,0.1,0,0.1-0.1c0,0,0.1-0.1,0.1-0.1c0,0,0,0,0.1-0.1c0,0,0,0,0,0
		c0,0,0,0,0,0c0,0,0,0,0,0c0,0,0-0.1,0.1-0.1c0,0,0,0,0,0c0,0,0,0,0,0c0,0,0,0,0,0c0,0,0,0,0,0c0,0,0,0,0,0c0,0,0,0,0,0c0,0,0,0,0,0
		c0,0,0-0.1,0.1-0.1c0,0,0,0,0-0.1c0,0,0,0,0,0c0,0,0,0,0,0c0,0,0-0.1,0-0.1c0,0,0-0.1,0.1-0.1c0,0,0-0.1,0-0.1c0-0.1,0-0.1,0.1-0.2
		c0.2-0.5,21.6-61.7,27.5-94.8c1.6-9.1-2.7-16.4-9.4-21c-0.1-0.1-0.2-0.1-0.3-0.2c1.3-1.9,1.9-4,2.2-5.9c0.4-2.2,0.6-4.2,1.2-6.2
		c1.1-4,3.4-8.2,12.5-13.3c20.1-11.3,26.8-33.1,24.9-52.9c-0.8-8.5,3.3-15.6,6.7-22.6c1.7-3.5,3.2-7,3.5-10.8
		c0.2-3.8-1.1-7.8-4.4-11.5c-3.5-3.8-8.3-5-12.7-4.4c-4.4,0.6-8.6,2.7-12.4,5.1c-4.7,3-8.7,6.6-11,8.9c-0.4-2.1-0.8-4.1-1.2-6.5
		c-2.1-12.5-4.1-29.6,1.5-55.5c11.3-52.6,15.3-83.1,7.4-103.6C1335.3,526.9,1326.7,521.7,1317,521.6L1317,521.6z M1317,526.8
		c7.9,0,14.1,3.8,17.3,11.9c7.1,18.1,3.6,48.1-7.6,100.6c-5.7,26.6-3.7,44.8-1.5,57.5c1.1,6.4,2.2,11.4,2.3,15.2
		c0.2,3.8-0.4,6.3-2.4,8.6c-9.9,11.4-28.8,26.8-27.7,53c0.5,12-2.5,19.9-5.5,24.9c-3,5-5.9,6.8-5.9,6.8c-0.2,0.1-0.4,0.3-0.5,0.4
		c-5.5-0.6-10.7-0.8-15-0.9c-4.2-0.1-7-0.1-9.1,0c0-0.1,0-0.3,0-0.4c0,0-2.5-12.7-3.1-28.2c-0.6-15.5,1.1-33.7,8.4-44.3
		c16.1-23.1,29.2-44.3,27.8-77.4c-0.7-16.3-1.9-31.1-1.8-43.3c0.1-12.2,1.6-21.7,5.6-27.5c0.8-1.2,0.5-2.8-0.7-3.7
		c-0.4-0.3-1-0.5-1.5-0.5c-0.9,0-1.7,0.4-2.1,1.1c-5.1,7.4-6.4,17.8-6.5,30.4c-0.1,12.6,1.1,27.4,1.8,43.5
		c1.3,31.7-10.8,51.2-26.9,74.2c-8.7,12.5-10,31.5-9.4,47.5c0.5,14.9,2.8,26.9,3.1,28.4c-1.1,0-2.5,0-4.2,0c-1.1,0-2.4,0-3.8,0.1
		c-1.1-1.9-4.9-9.4-10.6-26.2c-3.1-9.2-1.4-17,1.5-25.4c2.9-8.4,7.2-17.2,8.5-27.5c1.3-10.4-1-21.6-3.5-32.5
		c-2.5-10.9-5.2-21.6-5.4-30.5c-0.1-8.3,5.2-15.3,11.3-23.7s12.8-18.1,13.6-31.5c1.3-25,4.6-44.6,23.2-64.8
		c9.1-10,19.7-15.1,28.4-15.6C1315.9,526.9,1316.4,526.8,1317,526.8L1317,526.8z M1185.6,687.9c0.9,0,1.8,0.2,2.8,0.6
		c7.6,3,11.5,10.1,15.1,17.4c1.8,3.6,3.6,7.2,5.9,10.1c2.3,2.9,5.5,5.3,9.6,5.7c2.4,0.2,4.7,1.6,6.8,3.8c2.1,2.3,4,5.3,5.5,8.5
		c3,6.2,4.5,12.4,4.5,12.4c0,0.1,0.1,0.2,0.1,0.3c-0.6,1.6-1.2,3.1-1.7,4.7c-3.1,8.8-5.1,18.2-1.6,28.9c4.3,12.8,7.8,20.7,9.8,24.8
		c-4,0.2-8.4,0.5-13,1.1c-2.6-2.4-12.6-13-12.4-33.6c0.2-26.1-21.2-51.9-21.2-51.9c-0.5-0.6-1.2-1-2-1c-0.6,0-1.2,0.2-1.7,0.6
		c-1.1,0.9-1.3,2.6-0.4,3.7c0,0,20.2,25.4,20.1,48.5c-0.1,17.6,7,29.1,11.4,34.5c-0.5,0.1-1.1,0.2-1.6,0.3c-7.1,1.2-14.1,3.1-20,6
		c-2.9-2.3-14-12-10.8-24.7c4.4-17.3,0.9-38.9-11.7-53.3c-4.9-5.6-6.5-19.5-4.2-30.8c1.1-5.6,3.2-10.6,5.6-13.4
		C1182.2,689,1183.7,688,1185.6,687.9z M1357.9,693.4c2.2,0.1,4,0.9,5.8,2.8c2.6,2.8,3.2,5,3,7.6c-0.2,2.6-1.3,5.5-2.9,8.9
		c-3.2,6.7-8.2,14.9-7.2,25.4c1.8,18.2-4.3,37.7-22.2,47.8c-9.9,5.6-13.6,11.4-15,16.5c-0.7,2.5-0.9,4.8-1.3,6.6
		c-0.3,1.8-0.7,3-1.6,4.2c-3.2-1.6-6.8-2.9-10.5-3.9c1.3-2.3,6-10.9,11.4-21.6c3.1-6.1,6.3-12.5,8.7-18c2.4-5.4,4.2-9.6,4.4-12.8
		c0.2-3.3,2.9-9.4,5.6-14.3c2.7-4.9,5.4-8.8,5.4-8.8c0.8-1.2,0.5-2.8-0.7-3.7l0,0c-0.4-0.3-1-0.5-1.5-0.5c-0.9,0-1.7,0.4-2.1,1.1
		c0,0-2.8,4-5.7,9.2c-2.9,5.1-6,11.2-6.3,16.5c-0.1,1-1.6,5.7-3.9,11c-2.4,5.3-5.5,11.6-8.6,17.7c-6,11.7-11.6,21.8-12,22.7
		c-1.5-0.3-3-0.6-4.5-0.9c-1.3-0.2-2.6-0.4-3.9-0.6c1.2-1.3,2.7-3.1,4.1-5.4c3.5-5.8,6.8-14.9,6.2-27.8c-1-23.6,15.9-37.2,26.4-49.3
		c3-3.5,3.9-7.8,3.7-12.3c0-1-0.1-2-0.3-3c0.2-0.1,0.4-0.3,0.5-0.5c0,0,5.5-6,12.3-10.4c3.4-2.2,7.1-3.9,10.3-4.4
		C1356.4,693.5,1357.2,693.4,1357.9,693.4z M1252,810c4.2,0,6.8,0.1,6.8,0.1c0,0,0,0,0,0c0,0,0.1,0,0.1,0c0,0,0.1,0,0.1,0
		c0,0,0,0,0,0c0,0,18.6-0.9,36.3,2.3c8.8,1.6,17.4,4.2,23.1,8.1c5.7,3.9,8.6,8.5,7.3,15.8c-5.3,29.6-23.8,83.7-26.8,92.4h-79.9
		c-1-3-21.1-60.9-26.8-92.4c-1.3-7.2,1.6-11.9,7.3-15.8c5.7-3.9,14.2-6.5,23.1-8.1C1233.6,810.4,1245,810,1252,810z"/>
</g>
<g id="g2067" transform="translate(-8.315476,10.583333)">
	<path id="path2033" class="st0" d="M380.4,156.3c38.7,0,70.1,31.4,70.1,70.1c0,0,0,0,0,0c0,19-7.7,37.1-21.3,50.3l15.3,26.5
		l-40.5-10.9c-7.6,2.7-15.5,4.1-23.5,4.1c-38.7,0-70.1-31.4-70.1-70.1l0,0C310.3,187.6,341.7,156.3,380.4,156.3
		C380.4,156.3,380.4,156.3,380.4,156.3L380.4,156.3z"/>
	<path id="path2043" class="st1" d="M380.4,153.6c40.1,0,72.7,32.6,72.7,72.7c0,19-7.5,37.1-20.7,50.7l14.3,24.8
		c0.7,1.3,0.3,2.9-1,3.6c-0.6,0.3-1.3,0.4-2,0.3L404,295.1c-7.6,2.6-15.6,4-23.6,4c-40.1,0-72.7-32.6-72.7-72.7
		C307.7,186.2,340.3,153.6,380.4,153.6L380.4,153.6z M380.4,158.9c-37.3,0-67.5,30.2-67.5,67.5c0,37.3,30.2,67.5,67.5,67.5
		c7.7,0,15.4-1.3,22.7-3.9c0.5-0.2,1-0.2,1.6-0.1L439,299l-12.1-21c-0.6-1-0.4-2.4,0.4-3.2c13.1-12.7,20.5-30.2,20.5-48.5
		C447.8,189,417.7,158.9,380.4,158.9L380.4,158.9z"/>
	<path id="path2054" class="st1" d="M421.3,201.7c-4.1-4.1-10.8-4.1-14.9,0l-31.8,31.8L359,217.8c-4.1-4.1-10.8-4.1-14.9,0
		c-4.1,4.1-4.1,10.8,0,14.9l22.4,22.4c5.1,5.1,12.4,3.9,15.6,0.7l39.2-39.2C425.4,212.5,425.4,205.8,421.3,201.7L421.3,201.7z
		 M417.6,205.5c2.1,2.1,2.1,5.4,0,7.5l-39.2,39.2c-2.3,2.3-5.9,1.6-8.1-0.6L347.8,229c-2.1-2.1-2.1-5.4,0-7.5c2.1-2.1,5.4-2.1,7.5,0
		l17.5,17.5c1,1,2.7,1,3.7,0l33.6-33.6C412.2,203.4,415.5,203.4,417.6,205.5z"/>
</g>
</svg>
