<svg id="Layer_1" data-name="Layer 1" xmlns="http://www.w3.org/2000/svg" viewBox="0 0 722.29 679.88"><defs><style>.cls-1{fill:#fff;}.cls-2{fill:#86e5dd;}.cls-3{fill:#c5f9eb;}.cls-4{fill:#22393a;}</style></defs><g id="g3341"><path id="path3248" class="cls-1" d="M638,293.66,618,298s-6.25,24.88-5.07,39.53.58,32.66,12.15,33.69,16.56-4.39,16.56-4.39-2.64,9.81-7.91,13.62-36.62,21.68-51,25.19-25.05,8.35-31.79,20.66-22.56,36.91-22.56,36.91l-25.12,17.9,28.44,43.46,39-53.56a12.36,12.36,0,0,1,3.05,9.28c-.36,5.95,3.89,4.91,3.89,4.91l6.63-13.62s4.19,8.39,2.84,13.31-.3,10.16,3.48,6.63,5.23-14.39,5.23-14.39a34,34,0,0,1,5,10c1.34,5.18,6.73,3.8,6.73,3.8l2.8-13.74,11.18,61.39s8.5.76,11.6,5.52,2.49,8.19,2.49,8.19H809s9.12-17.09,2.7-39.68a41.18,41.18,0,0,1-1.08-5.37,7.12,7.12,0,0,1-1.85-.56S782.36,441.4,769,424.11s-18.75-17.28-33.11-22.26-45.7-20.66-54.2-26.81c-2.15-1.56-2.82-6.65-4.5-8.15-2-1.83-6,.4-7.59-.41-2.22-1.17-1.65-5-2-5.94-.73-2.05-1-21.54-1-21.54s9,5,12-.7,2.9-11.91-7-11-6,7.05-11.29-4.24-2.07-14.81-8-17.51S638,293.66,638,293.66ZM744.32,479.93l28.89,33.22-13.56,7.39Z" transform="translate(-201.47 -238.96)"/><path id="path2953" class="cls-1" d="M492.47,466.59l-117.34.88s-16.11-2.2-11.86,6.44,55.81,78.67,55.81,78.67H270.25s-11.13.88-4.25,9.08,18.9,7.18,18.9,7.18v260H488V569.29h63.19s-26.1,40.18-5.8,53.86,28.17,13.46,28.17,13.46-6.42,14.09,0,24.24,21.55,18.23,41.23,24.24,52.2,9.53,52.2,9.53-1.86,53.24-3.52,72.3,1.14,102.33,1.14,102.33-3.11,7.57-7.56,17.41-10.26,29-10.26,29h51.48s-13.46-23-16.88-36.77,3.41-29.32,3.41-29.32L703,768.47l11.8-53.76s9.64,1.14,13.47-7,3.21-19.37,3.21-19.37,9.32,14.81,9.43,22,7.87,12.12,17.5,14.71,15.85-1.76,15.85-2.9.52-10.57-5.08-17.82-15.64-24.13-15.64-24.13,22.69-2.28,32.42-11.91,40.3-43.41,42.57-63.92a177,177,0,0,1,8.38-37.12l53.39.13s10.33-4.44,4.73-10.65-58.39-4.51-58.39-4.51,5.2-10.84-.15-25.93S822.79,508.34,816.41,508a38.32,38.32,0,0,1-5.84-.68,41.52,41.52,0,0,0,1.08,5.37c6.42,22.58-2.7,39.67-2.7,39.67H635.56s.62-3.41-2.49-8.18-11.6-5.53-11.6-5.53h-83l-6.83-14-28.44-43.45Zm70.17,100.87h50.55s-3.32,9.84-7.15,14.6-7,6.22-7,6.22Z" transform="translate(-201.47 -238.96)"/><path id="path3254" class="cls-2" d="M542.09,567.21a40,40,0,0,0-9.8.83c-6.74,1.76-12.85,25-12.85,25s-4.76,17.6,3.94,28.27,43.35,22.26,68.7,30,39.25,12,50.24,13.33c5.91.71,8.38-.37,9.49-2.11-2.38,10.19-5,27.41,0,36.16,6.17,10.85,12.85,10.88,12.85,10.88s1.14-22,5.8-34.39,6.42-17,6.42-17-11-4.6-18-4.46c-2.75.06-4.89.84-5.53,2.91-.15.48-.31,1-.49,1.65,0-.33.07-.66.12-1,.59-3.8,1-1.75-15.52-8.35s-73.25-17.57-83.94-36,2.78-25.64,12.3-26.08,30.18,6,31.5,6.74,39.7,21.39,44.24,24.32,58.74,28.86,61.23,30.18,13.91,5.27,13.91,5.27-5.71-13.18-.58-21.83,21.24-23.43,29-26.22-7.18,1-34.57-9.67-35.16-4.1-57.71-3.8-50.83-.59-51.42-.88-9.5-1.48-9.5-1.48c-5.91-4.86-1-6-16.68-14.39-10.75-5.77-23.85-7.77-33.18-7.88Zm167.12,100.3c1,1.77,5.9,11.61,6.31,26.21s-.73,21-.73,21,8.81,0,14.2-10.11,1.14-17.61-3-23.21-16.78-13.88-16.78-13.88Z" transform="translate(-201.47 -238.96)"/><path id="path3013" class="cls-2" d="M670.08,341.28c-1.58-.06-2.86.34-2.93,1.27s-.83,13.26,3.31,13.46,6.42-7.56,6-11.08C676.21,342.73,672.71,341.38,670.08,341.28Z" transform="translate(-201.47 -238.96)"/><path id="path3011" class="cls-2" d="M659.39,266.68a63.52,63.52,0,0,0-17,2.53c-11.08,3.42-20.72,5.18-29,3.11s-1.56,18-1.76,18.44-10,1.55-7,16.47,9.12,11.7,9.64,11.6S618,298,618,298s11.49.41,16.36-2,6.42.31,9.12,2.59,11.18,5.39,13.05,11.19,5.18,18.43,5.18,18.43c.2,2.28,13.57-.82,13.57-.82s1.55-2.7,3.93-6.42,9.12-21.24,8.29-24.55-8.7-11.19-10.05-12.85.31-4.87-2.38-11.7c-1.52-3.85-8.14-5.3-15.63-5.23Z" transform="translate(-201.47 -238.96)"/><path id="path3019" class="cls-3" d="M631.2,417.85c-1.55.83-6.94-.52-3.72,10.77s5.18,29.11,5.18,29.11,5.07-9.43,4.86-18.85.52-14.71-1-16.89S631.2,417.85,631.2,417.85Z" transform="translate(-201.47 -238.96)"/><path id="path3017" class="cls-3" d="M677.71,403.14,659.17,422l-3.42-10s-4.55,8.7-4.66,12.22,6.47,78.19,6.58,78.71,3.78-24.33,7.82-42.15S677.71,403.14,677.71,403.14Z" transform="translate(-201.47 -238.96)"/><path id="path3276" class="cls-1" d="M613.19,567.46A32.47,32.47,0,0,1,608.08,579a24,24,0,0,1-2,3c-3.83,4.77-7,6.22-7,6.22s4,2.27,23.2,4,60.9-4.56,83.8-.21,40.91,18,48.06,11.29,6.63-35.94,6.63-35.94ZM570,587.2c-8.14.1-16.06,1.95-19.22,8.4-6.74,13.77,6.74,28.71,34.86,37.8s91.21,24.79,91.21,24.79-7.56,7.65-10.13,31c-.2,1.88-.41,3.58-.61,5.31.09,0,.79.1.79.1s-1.86,53.24-3.52,72.3,1.14,102.33,1.14,102.33-3.11,7.57-7.56,17.41-10.26,29-10.26,29h51.48s-13.46-23-16.88-36.77,3.41-29.32,3.41-29.32L703,768.47l11.8-53.76s9.64,1.14,13.47-7,3.21-19.37,3.21-19.37,9.32,14.81,9.43,22,7.87,12.12,17.5,14.71,15.85-1.76,15.85-2.9.52-10.57-5.08-17.82-15.64-24.13-15.64-24.13l1-.12c-5-7.42-11.34-15.93-15.88-19.11-8.7-6.11-21.89-7.53-21.89-7.53S611.1,603,592,589.49c-3.18-.26-12.68-2.4-21.91-2.29Z" transform="translate(-201.47 -238.96)"/><path id="path2279" class="cls-4" d="M657.44,263.62c-7.18-.11-14.68,2-21.22,4-4,1.23-7.68,2.43-10.5,3.11a17.2,17.2,0,0,1-4.69.47,23.1,23.1,0,0,0-4.12-2,6.78,6.78,0,0,0-5,.07,7.81,7.81,0,0,0-3.75,4.35,31.33,31.33,0,0,0-1.84,7.92,21,21,0,0,0,.57,8.54c-2.29,2.76-6.25,8.64-5.54,15.88a24.82,24.82,0,0,0,4.7,12,25.7,25.7,0,0,0,3.21,3.73A14.58,14.58,0,0,0,611,323.1c-.34,4.54-.57,9.52-.57,14.84,0,11.81,1.56,20.56,4.53,26.63s7.84,9.57,13.3,9.39a27.66,27.66,0,0,0,10.61-2.84c0,.73,0,1,0,1.63,0,0,0,0-.05,0s-6.36,4.67-14.68,10.05l-2.67,1.71a2.54,2.54,0,0,0-.95.59c-7.56,4.73-16.08,9.54-22.47,11.85-7.77,2.81-17.18,5.67-25.55,9.06s-15.81,7.16-19.65,12.86c-6.55,9.71-23.2,38.6-23.62,39.33L503,477.72a2.63,2.63,0,0,0,3.14,4.21L530,464.15l2.84,6.78a76.32,76.32,0,0,0,6.3,12.45L518.1,503.62a2.62,2.62,0,1,0,3.63,3.79l20.77-20a8.91,8.91,0,0,0,4.88,2.5c2.41.33,4.24-1.07,5.63-2.61a23.17,23.17,0,0,0,3.57-5.75,39.36,39.36,0,0,0,3.32-11.69l.21-.16,8.62-7.12a12.63,12.63,0,0,0,7.7,5.16c3.53.84,3.19.74,4.13.94l-5.16,13.67a2.63,2.63,0,0,0,4.92,1.84l6.21-16.47a2.63,2.63,0,0,0-2-3.51s-.71-.11-6.85-1.57c-4.9-1.17-5.7-4.76-5.7-4.76a2.64,2.64,0,0,0-2.58-1.91,2.55,2.55,0,0,0-1.62.6l-8.11,6.71a25.9,25.9,0,0,0-4.74-9.26,41.86,41.86,0,0,0-3.18-3.71l12-7.45.31-.22a15.83,15.83,0,0,1,11.86-3.05c7.49,1.25,26.66,7.57,42.4-3a2.63,2.63,0,0,0-1.42-4.8,2.68,2.68,0,0,0-1.51.45c-13.27,8.91-29.94,3.62-38.61,2.18a21.07,21.07,0,0,0-15.91,4.06l-22.08,13.71c5.67-9.68,14.32-24.34,18.4-30.4,2.58-3.82,9.23-7.66,17.27-10.92s17.39-6.11,25.37-9a101.4,101.4,0,0,0,14.56-7l-10.91,17.71a19.35,19.35,0,0,0-2.64,4.86c-1.08,2.94-1.64,7.24,1.08,10.93a2.63,2.63,0,0,0,4.23-3.12c-1.39-1.88-1.14-4-.38-6a14.54,14.54,0,0,1,1.93-3.56,2.4,2.4,0,0,0,.18-.26L624.14,389l.65-.41a20.87,20.87,0,0,0-2.94,9.25,79.23,79.23,0,0,0,1.82,20.87c0,.16,9.94,58,14.41,83.19L626.54,479.7a2.63,2.63,0,0,0-2.44-1.42,2.76,2.76,0,0,0-1.1.29,2.62,2.62,0,0,0-1.12,3.54l17.87,34.43a16.21,16.21,0,0,1,1.19,2.29c2.22,15.8,3.35,33.43,3.35,33.43a2.63,2.63,0,0,0,4.55,1.62,2.68,2.68,0,0,0,1.66,1.22,2.63,2.63,0,0,0,3.16-2c.28-1.24.85-4.53,1.57-8.78,0,0,0,0,0-.05s33.24-67.15,41.79-85.44c4.35-9.3,5.3-14.49,3.94-18.52a12.75,12.75,0,0,0-3-4.67,33.43,33.43,0,0,1-3.06-3.46,8.29,8.29,0,0,1-1.43-2.66c-.08-.41-.08-.53.3-1.24.75-1.42,3.33-4.24,6.86-9.36,3.37-4.9,5.42-6.85,6-10a8,8,0,0,0-.69-4.6c-.63-1.46-1.51-3-2.67-5.13-1.74-3.21-4.93-8.3-8.32-13.53a146.63,146.63,0,0,0,26.53,12.9c11,4,20,6.66,27.36,10.64S762,418.4,767.3,427.86c5.49,9.85,15.53,27.74,24.61,45.52s17.21,35.74,18.81,44.42a53.76,53.76,0,0,1-4.49,32.55,2.62,2.62,0,0,0,4.61,2.51,59.23,59.23,0,0,0,5-36c-1.92-10.39-10.15-28-19.3-45.86s-19.21-35.85-24.7-45.68c-5.7-10.22-12.5-16.33-20.54-20.69s-17.19-7.05-28.09-11c-16.22-5.81-30-15-35.7-19.16-3.18-4.75-5.8-8.61-5.8-8.61a21.62,21.62,0,0,0-3.91-2.7,6.13,6.13,0,0,0-5.07-.38,7.28,7.28,0,0,0-1.16.56,43.52,43.52,0,0,1-1.19-4.85,10.23,10.23,0,0,0,1.29-.15,9.25,9.25,0,0,0,6.46-5.44c1.65-3.64.76-7.37-.3-10-.16-.4-.33-.78-.5-1.14a14.41,14.41,0,0,0,1.88-.56,8.23,8.23,0,0,0,4.82-4.5c1.6-4.05-.2-7.82-2.08-10.05a18.24,18.24,0,0,0-2-2c1-1.75,2.48-4.43,4.09-7.79A79.7,79.7,0,0,0,689,304.65c1.4-4.82,2.32-10,0-14.27-2.09-3.91-5.64-5.48-7.72-6.47a12.24,12.24,0,0,1-1.55-.84s0,0,0,0a12,12,0,0,0-1.74-10.81c-2.65-3.68-7.61-6.68-15.71-8.16a29.47,29.47,0,0,0-4.9-.46Zm-.06,5.27a22.53,22.53,0,0,1,4,.35c7.24,1.32,10.77,3.82,12.39,6.07a6.54,6.54,0,0,1,1,6,5.5,5.5,0,0,0,.89,5.13,9.35,9.35,0,0,0,3.36,2.18c2.18,1,4.12,1.9,5.35,4.2,1,1.93.8,6-.44,10.33a77.58,77.58,0,0,1-4.59,11.43,99.61,99.61,0,0,1-4.75,8.84c-.47.27-2.2,1.3-4.68,2.58-1.39.71-2.86,1.41-4.06,1.89a16.18,16.18,0,0,1-1.54.51,1.71,1.71,0,0,1-.48-.53,21.57,21.57,0,0,1-1.74-4,38,38,0,0,1-2-10.09c0-3.18-.11-5.39-1-7.43a7.1,7.1,0,0,0-5-3.9h0c-1.85-.4-5.79-3.87-10.19-7.44-2.34-1.9-4.66-3.16-7.27-3.12s-4.91,1.29-7.5,3.1c-1.59,1.12-4.35,1.42-6.78,1.22a23.23,23.23,0,0,1-4.3-.78h0a9.36,9.36,0,0,1-3.66-2.47,12.7,12.7,0,0,1-2.68-4.94,16.48,16.48,0,0,1-.19-5.87,26.75,26.75,0,0,1,1.48-6.56c.53-1.27,1-1.54,1.08-1.6s.37-.12,1.15.14a20.06,20.06,0,0,1,3.14,1.57c2.67,1.55,5.37.85,8.55.09s6.85-2,10.81-3.19c6.42-2,13.55-3.81,19.63-3.77Zm-47.8,26.56c.34.43.69.84,1,1.21a15.53,15.53,0,0,0,3.68,2.82,167.38,167.38,0,0,0-2.69,17c-.42-.48-.86-1-1.29-1.62a20,20,0,0,1-3.74-9.42C606.21,301.63,608,298,609.58,295.45Zm27.19,1.76c.91,0,2,.38,3.87,1.94,4.1,3.33,7.6,7.46,12.38,8.5,1.23.27,1.05.17,1.31.79a19.76,19.76,0,0,1,.56,5.5,40.7,40.7,0,0,0,2.28,11.7,25.22,25.22,0,0,0,2.23,5c.86,1.41,1.75,3,4.13,3.17a8.67,8.67,0,0,0,4.33-1c1.45-.59,3-1.35,4.51-2.11s3-1.6,4-2.19A12.88,12.88,0,0,1,678,330c1.22,1.46,1.95,2.86,1.21,4.75a2.74,2.74,0,0,1-1.83,1.52,12.94,12.94,0,0,1-4.16.67,30.34,30.34,0,0,1-6-.54,2.63,2.63,0,0,0-3.16,2.4,95.84,95.84,0,0,0,0,10.77c.32,5.57,1.15,12.33,3.49,18l-21.68,29-4,.32,0-.11c1.25-4.56,1.73-11.82,2-18.21.22-5.15.26-8.86.27-10.41a47.63,47.63,0,0,0,3.91-2.72,2.63,2.63,0,0,0-3.27-4.11,45.14,45.14,0,0,1-5.5,3.61c-3.29,1.83-7.59,3.61-11.26,3.73-3.33.11-6-1.53-8.41-6.44s-4-13-4-24.33a182.53,182.53,0,0,1,3.64-36.8,24.76,24.76,0,0,0,2.66.37c3,.25,6.95.15,10.23-2.15,2.28-1.6,3.66-2.13,4.57-2.15Zm-9,34.62c-.1,0-.2,0-.31,0s-8.11,1.31-9.06,4.46,5.71,6.52,8.72,4.25,3.78-8.92.65-8.75Zm41.54,10c.9.13,1.48.27,2.37.33a16.92,16.92,0,0,1,1.36,2.67c.79,2,1.16,4.23.39,5.92-.9,2-1.81,2.28-2.68,2.46a4.1,4.1,0,0,1-1.06.06c-.15-1.37-.26-2.72-.34-4a60,60,0,0,1,0-7.44Zm5.7,25.77c.07,0,.14.06.3.15.62.35,2.09,2.34,3,5.43,1.73,6.17,1.6,16-1.82,23A100.85,100.85,0,0,1,664.54,415a27.5,27.5,0,0,1-3.9,4c-.46-1-.8-1.72-1.52-3.13-1.19-2.31-2.63-5.08-4-7.74-2.42-4.56-4.09-7.64-4.7-8.78l22.25-29.76s0,0,0,0l.07-.11a5.43,5.43,0,0,1,1.93-1.77,1.13,1.13,0,0,1,.32-.09Zm9.57,11.85c5.18,7.78,11.59,17.58,14.13,22.26,1.18,2.18,2,3.7,2.44,4.69s.43,1.25.37,1.6c-.13.7-1.68,2.93-5.16,8-3.32,4.83-5.72,7.14-7.17,9.86a7.37,7.37,0,0,0-.82,4.71,12.17,12.17,0,0,0,2.3,4.69,35.6,35.6,0,0,0,3.51,4A7.69,7.69,0,0,1,696,442c.65,1.93.42,5.76-3.72,14.62-5.94,12.69-23.81,49-34.1,69.86.54-3.29,1-5.89,1.56-9.45,3-17.9,6.32-38.16,8.53-49.9,4.1-21.71,13.73-68.1,15.27-75.48.16-.7.31-1.41.43-2.12,0,0,.14-.66.14-.66a2.4,2.4,0,0,0,0-.46h0a41.86,41.86,0,0,0,.36-9Zm-46.07,1c-.31,5.67-.78,12-1.6,15-.89,3.28-4.09,8.82-7,13.25-1.09,1.63-1.18,1.65-2.08,2.89a75.81,75.81,0,0,1-.64-13.47c.2-4.36,4-10.08,7.95-14.46A31.33,31.33,0,0,1,638.46,380.48Zm7.31,21.41,3.16,5.9c-3.94,3.21-6.59,2.76-8.77,1.81a10.39,10.39,0,0,1-3.22-2.29c1-1.63,1.95-3.29,2.77-4.94Zm28.52,8.63c-3.69,18-8.54,41.71-11.17,55.66-1.43,7.62-3.34,18.77-5.3,30.45l-4.41-68.45a3.08,3.08,0,0,0-.13-.66,20.73,20.73,0,0,0,2.3-3.7c.29-.59.53-1.16.75-1.72.14.3.35.74.4.86a3.52,3.52,0,0,0,1.55,1.76,3.61,3.61,0,0,0,2.16.36,6,6,0,0,0,2.79-1.29,31.92,31.92,0,0,0,5.37-5.42,86.86,86.86,0,0,0,5.69-7.85Zm-40.24,1.29a15.11,15.11,0,0,0,4,2.6c3.4,1.49,8.33,1.56,13.34-2,.51,1,1,1.86,1.45,2.79a2.48,2.48,0,0,0-.18.66,20.89,20.89,0,0,1-1.81,5.61c-1.42,2.92-3.65,5.72-7.46,6.54a4.7,4.7,0,0,1-4-.76,11.62,11.62,0,0,1-3.23-3.83,31.84,31.84,0,0,1-2.24-5,26.75,26.75,0,0,0-1.39-3.75l-.2-.31c.56-.8,1.15-1.65,1.76-2.56Zm-4.54,9.92a32.93,32.93,0,0,0,2,4.35,17.68,17.68,0,0,0,3.66,4.64,2.2,2.2,0,0,0-.1.57L634,448.08C631.85,435.37,629.92,424.14,629.51,421.73Zm18.87,10,5.28,81.9c0,.75.73,3.62.64,4.15-1.37,8.35-2.65,16.1-3.66,22.15-.54,3.23-1,6-1.38,8.11-.56-7.61-2.07-25.54-4.6-39.22-1.24-6.76-4-22.41-6.78-38.6l2.37-37a10.52,10.52,0,0,0,4.25-.05,14.42,14.42,0,0,0,3.88-1.43Zm-48.55,12.48a2.63,2.63,0,0,0-.88,5.1,14.07,14.07,0,0,1,4.61,3.27c2.75,2.65,6.15,7.25,8.45,15.09,0,0,0,0,0,0l3.65,13.57a2.62,2.62,0,0,0,5.07-1.36l-3.66-13.63s0,0,0-.05c-2.54-8.69-6.48-14.15-9.86-17.42a21.23,21.23,0,0,0-6.47-4.43,2.51,2.51,0,0,0-.9-.16Zm-52.68,9a35.58,35.58,0,0,1,3.55,4c2.16,2.85,4.13,6.59,4.13,9.75a33.35,33.35,0,0,1-3,12.42,18.43,18.43,0,0,1-2.71,4.42c-.83.93-1.28.89-1,.93-.84-.12-2.56-1.31-4.45-4.1a71.52,71.52,0,0,1-5.94-11.75l-3.27-7.81Zm54.77,6.3a1.71,1.71,0,0,0-.45,0,2.61,2.61,0,0,0-2.13,3s1,5.55,2,11.53,2.43,14.22,3,16.32a2.62,2.62,0,0,0,5.08-1.3c-.31-1.24-1.82-10-2.89-15.95s-2-11.5-2-11.5a2.63,2.63,0,0,0-2.59-2.17Zm131.94,1.64a2.55,2.55,0,0,0-1.58.57,2.63,2.63,0,0,0-.42,3.69L741,476.84l-9.74-.31H731a2.62,2.62,0,0,0,.06,5.24l11.85.38,13.42,36.77a8.12,8.12,0,0,0-3.46.6A16.16,16.16,0,0,0,744,528.6c-4.32-1.53-8.72-1.6-12.54-1.79-4.28-.22-7.67-.65-9.74-2.32a15.32,15.32,0,0,0-10.55-3.67c-3.61.22-7,1.81-10.35,4.22-3.51,2.55-8.82,7.94-13.52,12.86s-11.48,12.47-11.48,12.47a2.62,2.62,0,0,0,3.89,3.52s6.73-7.52,11.38-12.37,10.2-10.33,12.81-12.24c2.8-2,5.33-3.09,7.59-3.23a9.72,9.72,0,0,1,6.94,2.54c3.72,3,8.37,3.24,12.76,3.46s8.69.38,12.26,2a19.09,19.09,0,0,1,8.48,6.82,10.13,10.13,0,0,1,1.26,8.77,2.63,2.63,0,0,0,5,1.51A15.74,15.74,0,0,0,756.38,538a22.59,22.59,0,0,0-7.64-7.19,10.18,10.18,0,0,1,6.09-6.46,12,12,0,0,1,4.15-.87A34.5,34.5,0,0,1,766,531c3.48,5,6.11,11.77,3.2,20.09a2.63,2.63,0,1,0,5,1.74c3.54-10.14.23-18.93-3.84-24.81a39.18,39.18,0,0,0-5.81-6.63L781,512.67a2.63,2.63,0,0,0-1.13-4.95,2.52,2.52,0,0,0-1.32.31l-4.26,2.25L736,462.13a2.61,2.61,0,0,0-2-1Zm-141.57,2.49a2.73,2.73,0,0,0-.89.15,2.62,2.62,0,0,0-1.6,3.35,67.3,67.3,0,0,1,1.87,6.6c.83,3.6,1.13,7.95.62,9.36a22.59,22.59,0,0,1-3.73,7.06,2.62,2.62,0,1,0,3.92,3.48,29.53,29.53,0,0,0,4.75-8.75c1.4-3.87.47-8.38-.43-12.32a71.86,71.86,0,0,0-2-7.18,2.63,2.63,0,0,0-2.46-1.75Zm-20.62,4.51h-.07a2.6,2.6,0,0,0-2,1l-39.53,52.48a2.62,2.62,0,0,0,4.19,3.16l39.53-52.48a2.62,2.62,0,0,0-.52-3.67,2.59,2.59,0,0,0-1.65-.53Zm39.85,6.73c0-.15-.3,0-.45,0a2.64,2.64,0,0,0-2.13,3l10,60.3a2.63,2.63,0,1,0,5.17-.92l-10-60.3a2.63,2.63,0,0,0-2.59-2.17Zm139.78,15,18.27,22.95-8.29,4.39Zm-39.06,40.41c0-.22-.43,0-.64,0a13.18,13.18,0,0,0-4.11,1.12c-.52.22-1,.43-1.21.54l-.09,0h.29a2.65,2.65,0,1,0,1.9,4.8c.38-.17.76-.35,1.17-.52a8.59,8.59,0,0,1,2.49-.72,2.39,2.39,0,0,1,1.85.46,6.79,6.79,0,0,1,2,3.6c1.49,5,2.08,7.95,3.82,10.35a7.82,7.82,0,0,0,3.48,2.69,19.28,19.28,0,0,0,4.6,1c4.38.6,8.59-1.16,12.16-3.55a32.07,32.07,0,0,0,8.5-8.35,2.63,2.63,0,1,0-4.36-2.93,27.16,27.16,0,0,1-5.26,5.58,28.05,28.05,0,0,0,1.57-9.11,2.63,2.63,0,1,0-5.25.05s-.16,8.28-4.7,13.1a6.7,6.7,0,0,1-2,0l-.35-.05a43.19,43.19,0,0,0,1.61-4.61c1-3.4,2-7.55.26-11.31a2.63,2.63,0,0,0-4.79,2.15c.59,1.32.32,4.78-.52,7.72-.4,1.4-.86,2.66-1.23,3.61-.61-1.38-1.38-3.9-2.56-7.87a11.65,11.65,0,0,0-3.89-6.29,7.83,7.83,0,0,0-4.81-1.54Zm47.59,35.49h-.11a2.63,2.63,0,0,0-2.49,2.53s-.28,7.83-1,16c-.35,4.07-.8,8.23-1.35,11.45a35,35,0,0,1-.87,3.93,5.9,5.9,0,0,1-.47,1,14.62,14.62,0,0,1-3.48.63,50.86,50.86,0,0,1-9-.55,94.92,94.92,0,0,1-24.78-7.11c-18.59-8.26-41.57-6.4-61.77-4.77-5.17.42-10.18.75-15.06.93.83-1.36,1.86-3,3.31-5.32A26.61,26.61,0,0,0,647,573.69a13.48,13.48,0,0,0-.17-4.6,2.62,2.62,0,1,0-5,1.46,6.16,6.16,0,0,1,0,2.49,21.25,21.25,0,0,1-3.44,8.63c-2.61,4.12-4.15,6.71-5.05,8.28a118.23,118.23,0,0,1-28.61-2.78c.83-.93,1.77-2,2.9-3.37,4.29-5.2,7.09-12.9,7.09-12.9a2.62,2.62,0,0,0-1.52-3.39,2.52,2.52,0,0,0-.9-.17,2.61,2.61,0,0,0-2.49,1.7s-2.91,7.39-6.23,11.41c-2.19,2.66-3.66,4.23-4.56,5.15-7.21-2.35-12.29-5.58-17.36-9-5.4-3.64-14-8.8-21.6-11.48-1.37-.47-3.48-.43-4,.93a2.63,2.63,0,0,0,1.6,3.35c6.82,2.41,15.56,7.86,21,11.55a94.28,94.28,0,0,0,9.74,5.88,91.55,91.55,0,0,0-10-1.89,68.57,68.57,0,0,0-9.89-.65c-8.95.11-15.12,2.45-18.94,6.32-5.1,5.16-5.25,12.6-2.62,18.69,2.47,5.7,6.18,10.82,14.23,15.71s20.42,9.81,41,16.1c19.08,5.85,36.12,10.49,49.08,13.85-.53,2.22-1.24,4.95-2,8-1.33-.12-3.23-.33-6.32-.77-3.33-.47-13.42-2.53-22.92-4.66-4.74-1.07-9.39-2.15-13-3.08s-6.67-1.87-6.88-2c-1.51-.72-4.57-1.73-9.29-3.33s-10.77-3.61-17.07-5.72c-12.59-4.2-26.25-8.82-31.88-11.11a35.77,35.77,0,0,1-15.5-12.57,31,31,0,0,1-5.07-23.12c1.54-9.59,5.07-15.75,8.16-19.54a67.11,67.11,0,0,1,7.91-7.77,2.63,2.63,0,0,0,1-3.56c-.46-.85-3.23-1.24-3.56-1a72.7,72.7,0,0,0-9.47,9.06c-3.62,4.45-7.59,11.54-9.27,22a36.54,36.54,0,0,0,5.92,26.91,40.58,40.58,0,0,0,17.85,14.46c6.08,2.48,19.6,7,32.2,11.24,6.3,2.1,12.35,4.11,17,5.7s8.36,2.93,8.73,3.1a49.83,49.83,0,0,0,7.84,2.33c3.73.94,8.41,2,13.19,3.1,9.56,2.15,19.41,4.18,23.32,4.74,2.64.38,4.45.58,5.93.71a83.12,83.12,0,0,0-1.75,14.49c-.12,6,.67,12.08,3.38,17.48a26,26,0,0,0,12.32,11.84c-.29,5.53-.43,11.31-.38,17.33.21,25.32.2,138.63.2,139.47-.15.37-2.61,6.63-6.22,15-3.89,9-10.34,29.32-10.34,29.32a2.62,2.62,0,1,0,5,1.6s6.58-20.55,10.16-28.83c3.75-8.69,6.47-15.59,6.47-15.59a2.69,2.69,0,0,0,.18-1s0-114.48-.2-140c0-5.28.06-10.39.29-15.29,0-.66.19-3.35.26-4.73,1.05-16.42,3.48-30.21,6.36-39.89,1.9-6.37,5-10,8.88-11.22s9-.36,15.4,4c6.53,4.45,9.67,8.27,11.5,12.91s2.3,10.36,2.74,18.32c.85,15.49-2.3,35.23-8.43,60.31-6.18,25.3-27.4,119-27.4,119a2.73,2.73,0,0,0,.06,1.39s2.79,8.66,6.59,18.36c1.76,4.49,3.74,9.18,5.79,13.4a2.62,2.62,0,0,0-.87,1.86s-.17,3.76-3.32,5.15a2.63,2.63,0,0,0,2.14,4.81,10.44,10.44,0,0,0,5.36-5.54,28.11,28.11,0,0,0,4,5.47,2.63,2.63,0,0,0,3.72-3.71c-1.56-1.57-3.76-5.11-5.87-9.36s-4.23-9.25-6.09-14c-3.6-9.18-6.06-16.83-6.25-17.41.27-1.16,21.13-93.23,27.21-118.16a346.12,346.12,0,0,0,7.4-37.65,16.38,16.38,0,0,0,7.52-3c3.76-2.71,7.41-7.74,9.11-16.41a56.52,56.52,0,0,1,3.47,7.15c2.81,7.49.82,12.68.82,12.68a2.63,2.63,0,0,0,4.93,1.81,25.69,25.69,0,0,0-.83-16.33c-3.39-9-14.16-26.53-26.66-36.07-.43-.33-5.52-2.46-6.82-3.75a47.36,47.36,0,0,0-6.9-5.6,31.53,31.53,0,0,0-10.49-4.88,17.32,17.32,0,0,0-9.5.24,15.59,15.59,0,0,0-4.83,2.64c-1.19-.27-32.56-7.36-72.6-19.63-20.37-6.24-32.44-11.11-39.77-15.57s-9.94-8.24-12.14-13.31c-2-4.69-1.87-9.47,1.53-12.91s10.81-6,24.41-4.16c27.21,3.61,43,18.7,68.4,31.51,0,0,13.93,7.46,29.59,15.45S708.4,653.54,716,655.86c13.78,4.23,22.67,6.17,31.36,19,4.53,6.69,9.95,15.19,14.45,22.57a175,175,0,0,1,8.79,15.63,20.42,20.42,0,0,1,.59,4.48c.09,2.1,0,4.57,0,6.9-.19,4.66-.6,8.76-.6,8.76a2.63,2.63,0,1,0,5.23.53s.42-4.24.62-9.08c.1-2.42.14-5,0-7.33a19.84,19.84,0,0,0-.92-6.12c-1.16-3.07-4.67-9.05-9.22-16.5s-10-16-14.58-22.78c-9.53-14.08-20.53-16.91-34.16-21.1-6.15-1.89-23.81-10.45-39.41-18.41q-6.72-3.43-12.6-6.51c4.08-3.93,14.85-12.78,28-11.31a2.63,2.63,0,1,0,.58-5.22,33.4,33.4,0,0,0-3.7-.2,31.8,31.8,0,0,0-3.55.2c-13.6,1.51-23.39,11-26.21,14-7-3.68-12-6.34-12-6.34l-.06,0c-16.15-8.13-28.82-17.69-43.7-24.4A123.92,123.92,0,0,0,633,595.2a12.84,12.84,0,0,0,3.22-.05c6.08-.14,12.33-.54,18.75-1.06,20.18-1.62,42.39-3.13,59.22,4.34a99.33,99.33,0,0,0,26.2,7.52c3.83.53,18.3-3.48,18.71-4.79a38.55,38.55,0,0,0,1-4.6c.59-3.48,1-7.72,1.4-11.88.7-8.31,1-16.24,1-16.24a2.62,2.62,0,0,0-2.53-2.71ZM656.34,656.28c8.26,2.1,13.09,3.25,16,3.92a28.84,28.84,0,0,0-3.45,7.6c-2.87,9.67-5.25,22.83-6.39,38.41a19.85,19.85,0,0,1-8-8.46c-2.18-4.35-2.94-9.57-2.83-15a80.41,80.41,0,0,1,2-15.09,24.26,24.26,0,0,0,.62-2.8C655,661.67,655.76,658.76,656.34,656.28ZM714.91,674a94.35,94.35,0,0,1,13.83,16.69s0,0,0,0c-.77,11.88-4.57,16.9-7.81,19.24a11.32,11.32,0,0,1-3.83,1.83,125.53,125.53,0,0,0,.56-18.81c-.42-7.56-.82-13.57-2.75-19Zm33.71,36.62a2.61,2.61,0,0,0-2.58,2.18s-.26,1.48-.68,3.2a25.92,25.92,0,0,1-1.34,4,2.62,2.62,0,1,0,4.33,3,16.46,16.46,0,0,0,2.11-5.7c.46-1.91.75-3.54.75-3.54a2.63,2.63,0,0,0-2.14-3,2.28,2.28,0,0,0-.45,0Zm16.22,3.63a2.61,2.61,0,0,0-2.6,2.64s-.12,8.31-1.66,12.62a2.62,2.62,0,1,0,4.94,1.76c2.16-6,2-14.41,2-14.41A2.62,2.62,0,0,0,764.84,714.27Zm-9.23,2.37a2.61,2.61,0,0,0-2.59,2.42s-.08,1-.26,2.22a18.33,18.33,0,0,1-.78,3.27,2.62,2.62,0,1,0,4.78,2.15,17.22,17.22,0,0,0,1.18-4.64c.22-1.43.31-2.59.31-2.59a2.61,2.61,0,0,0-2.41-2.82h-.23ZM666.35,904.27a2.62,2.62,0,0,0-2.55,2.57,10.89,10.89,0,0,1-.46,2.66,3.91,3.91,0,0,1-2.11,2.78,2.63,2.63,0,1,0,1.7,5c3.24-1.11,4.74-4,5.42-6.19a15.6,15.6,0,0,0,.7-4.13,2.62,2.62,0,0,0-2.58-2.66Zm11,.51h-.11a2.63,2.63,0,0,0-2.53,2.72s-.2,4.08-2.17,5.17a2.63,2.63,0,0,0,2.55,4.59c5.48-3,4.86-10,4.86-10a2.62,2.62,0,0,0-2.6-2.53Z" transform="translate(-201.47 -238.96)"/><g id="g3309"><path id="path2185" class="cls-3" d="M363.86,469.85S402,530.13,457.5,539.66s81-1,81-1l8.7,12.63H412.75Z" transform="translate(-201.47 -238.96)"/><path id="path2187" class="cls-3" d="M283.49,691.72s26.31,42.94,98.09,51.73,92.28,6.15,92.28,6.15H284.6Z" transform="translate(-201.47 -238.96)"/><path id="path2189" class="cls-3" d="M283.49,598s26.31,42.94,98.09,51.73,92.28,6.15,92.28,6.15H284.6Z" transform="translate(-201.47 -238.96)"/><path id="path2191" class="cls-3" d="M283.49,773.16s26.31,42.94,98.09,51.73,92.28,3.88,92.28,3.88H284.6Z" transform="translate(-201.47 -238.96)"/></g><path id="path3163" class="cls-3" d="M361.07,464.46a2.62,2.62,0,0,0-2.23,4l50,81.49H271a9.75,9.75,0,0,0-9.71,9.71v.26a9.75,9.75,0,0,0,9.71,9.71H282v344H204.09a2.63,2.63,0,0,0,0,5.26h717a2.63,2.63,0,0,0,0-5.26H869.27v-344h20.11a9.75,9.75,0,0,0,9.72-9.71v-.26a9.75,9.75,0,0,0-9.72-9.71H840.12c.29-1.2.52-2.53.73-4a64.53,64.53,0,0,0,.53-10.55c-.24-7.64-1.72-16-6.39-21.84a21.6,21.6,0,0,0-15.48-7.94,28.29,28.29,0,0,0-6.88.26c.65,1.76,1.23,3.45,1.72,5,3.21-.4,9.47-.48,14.44,3.75h0a12.85,12.85,0,0,1,1.7,5c.57,3.33.45,8.14-2.67,14.2-5.15,10-8.85,14.58-10.25,16.12H638.09a16.35,16.35,0,0,0-3.21-7.92c-2.54-3.26-6.86-5.6-12.72-5.6H541.92L496.7,465.66a2.62,2.62,0,0,0-2.22-1.21Zm4.69,5.25H493.05L544.32,550H415s0,0,0-.06Zm80.56,27a12,12,0,1,0,12,12A12,12,0,0,0,446.32,496.74Zm0,5.25a6.74,6.74,0,1,1-6.73,6.74A6.7,6.7,0,0,1,446.32,502Zm389.07,26.29a52.08,52.08,0,0,1,.74,7.26,59.31,59.31,0,0,1-.48,9.67,29.71,29.71,0,0,1-1,4.74H824.22a102.58,102.58,0,0,0,8.28-13.72,32,32,0,0,0,2.89-8Zm-290.12,13.4h76.89c4.57,0,7,1.53,8.58,3.57a11.08,11.08,0,0,1,2,4.7h-82.2ZM271,555.2H548.84a1.82,1.82,0,0,0,.57,0h340a4.4,4.4,0,0,1,4.47,4.46v.26a4.4,4.4,0,0,1-4.47,4.46H271a4.38,4.38,0,0,1-4.45-4.46v-.26A4.39,4.39,0,0,1,271,555.2Zm16.18,14.43H486v83.6H287.21Zm204.08,0H808.22c-1.12,5.8-6,15.66-24.57,22.94-10.63,4.18-21.82,5.83-32.58,8.68s-21.21,7-29.65,16.48-10.12,17.71-9.62,24a36.3,36.3,0,0,0,1.52,7.51c1.68.69,3.13,1.25,4.19,1.57l1.86.57a26.07,26.07,0,0,0-.93-3.33,31.86,31.86,0,0,1-1.4-6.73c-.41-5.11.69-11.62,8.29-20.13s16.72-12.16,27.08-14.9,21.81-4.41,33.16-8.87c20.71-8.15,26.79-20.3,27.95-27.83h20.21c-1.17,6.82-6.28,33.67-18.38,59.12a98.4,98.4,0,0,1-29.44,35.57c-10.79,8.09-22.12,12.79-30.57,13.16,1.07,1.62,2.14,3.3,3.23,5a51.91,51.91,0,0,0,15-4.55l88.8,235.67H811.27L763.56,746.32a2.62,2.62,0,0,0-2.56-1.9,2.24,2.24,0,0,0-.68.1,2.62,2.62,0,0,0-1.81,3.24l47.3,165.83h-206L658,709.54a26.34,26.34,0,0,1-4.37-3.85l-59.3,207.9H543.27l85-222.17a120.14,120.14,0,0,0,19,1.21,40.18,40.18,0,0,1-.73-5.25c-3.78,0-15.23-.14-23.65-2.41a176.94,176.94,0,0,1-22.75-7.88c-8.6-3.7-16.92-8.49-21-13.33-4.28-5.1-5.58-9.59-5.91-12.8a15.28,15.28,0,0,1-.09-2.16l-1-.35L568,647.08a20.62,20.62,0,0,0,0,4.41c.42,4.15,2.18,9.77,7.11,15.64,5.16,6.15,14,10.93,22.92,14.79A181.82,181.82,0,0,0,621.51,690c.49.13,1,.24,1.48.36L537.65,913.59H491.29Zm347.76,0h25V903.16L778.25,675.53a92.19,92.19,0,0,0,10.81-7,103.19,103.19,0,0,0,31-37.51c13.22-27.79,18.22-56.67,19-61.38ZM298.81,595.75a2.63,2.63,0,1,0,0,5.25h2.48a2.63,2.63,0,1,0,0-5.25Zm173.8,0a2.63,2.63,0,0,0,0,5.25h2.49a2.63,2.63,0,0,0,0-5.25Zm-173.8,31.79a2.63,2.63,0,1,0,0,5.26h2.48a2.63,2.63,0,1,0,0-5.26Zm173.8,0a2.63,2.63,0,0,0,0,5.26h2.49a2.63,2.63,0,0,0,0-5.26Zm98.69,15.09,1.09.37a2.45,2.45,0,0,0-.52-.24,2.63,2.63,0,0,0-.57-.13ZM287.21,658.47H486v88.8H287.21Zm11.6,15.17a2.63,2.63,0,0,0,0,5.25h2.48a2.63,2.63,0,1,0,0-5.25Zm173.8,0a2.63,2.63,0,0,0,0,5.25h2.49a2.63,2.63,0,0,0,0-5.25Zm-173.8,55.83a2.63,2.63,0,0,0,0,5.25h2.48a2.63,2.63,0,1,0,0-5.25Zm173.8,0a2.63,2.63,0,0,0,0,5.25h2.49a2.63,2.63,0,0,0,0-5.25Zm-185.4,23H486V826H287.21Zm11.6,18.07a2.63,2.63,0,0,0,0,5.25h2.48a2.63,2.63,0,1,0,0-5.25Zm173.8,0a2.63,2.63,0,0,0,0,5.25h2.49a2.63,2.63,0,0,0,0-5.25Zm-173.8,31.8a2.63,2.63,0,0,0,0,5.25h2.48a2.63,2.63,0,1,0,0-5.25Zm173.8,0a2.63,2.63,0,0,0,0,5.25h2.49a2.63,2.63,0,0,0,0-5.25Zm-185.4,28.85H486v82.35H287.21Z" transform="translate(-201.47 -238.96)"/></g><g id="g3039"><path id="path2951" class="cls-1" d="M723.62,241.59v90.9h31l-1.37,29.25,32.33-29h60.06V241.59Z" transform="translate(-201.47 -238.96)"/><path id="path2992" class="cls-3" d="M723.62,239a2.64,2.64,0,0,0-2.63,2.63V332a2.62,2.62,0,0,0,2.63,2.62h28.27l-.67,27.91a2.63,2.63,0,0,0,4.46,1.94l30.68-29.85h59.28a2.63,2.63,0,0,0,2.63-2.62V241.59a2.63,2.63,0,0,0-2.63-2.63Zm2.62,5.26H843v85.1H785.29a2.65,2.65,0,0,0-1.64.58h0l-.16.14v0l-26.83,26.1L757.2,332c0-.1,0-.2,0-.3a.07.07,0,0,0,0,0v-.06h0a.93.93,0,0,1,0-.23v0a3.86,3.86,0,0,0-.19-.54h0a2.75,2.75,0,0,0-.17-.29l0-.05,0-.05,0,0,0,0h0a.8.8,0,0,0-.15-.17l0,0,0,0h0a2.73,2.73,0,0,0-1.23-.66H755a1.33,1.33,0,0,0-.4,0h-28.4Zm18.91,25.41a2.63,2.63,0,0,0,0,5.25h84.1a2.63,2.63,0,1,0,0-5.25ZM746,292a2.63,2.63,0,0,0,0,5.25h47.45a2.63,2.63,0,0,0,0-5.25Zm62.78,0a2.63,2.63,0,1,0,0,5.25H827a2.63,2.63,0,0,0,0-5.25Z" transform="translate(-201.47 -238.96)"/></g></svg>